<?xml version="1.0" encoding="UTF-8"?>
<svg width="106px" height="89px" viewBox="0 0 106 89" version="1.1" xmlns="http://www.w3.org/2000/svg" xmlns:xlink="http://www.w3.org/1999/xlink">
    <!-- Generator: Sketch 46.1 (44463) - http://www.bohemiancoding.com/sketch -->
    <title>01</title>
    <desc>Created with Sketch.</desc>
    <defs></defs>
    <g id="Desktop" stroke="none" stroke-width="1" fill="none" fill-rule="evenodd">
        <g id="Главная-страница" transform="translate(-286.000000, -1260.000000)">
            <g id="01" transform="translate(286.000000, 1260.000000)">
                <polygon id="Fill-218" fill="#F2F2F2" points="62.8519496 88.9842941 105.156866 88.9842941 105.156866 29.1523613 62.8519496 29.1523613"></polygon>
                <polygon id="Fill-219" fill="#CCCBCA" points="67.0050336 48.9410252 101.003034 48.9410252 101.003034 47.6157479 67.0050336 47.6157479"></polygon>
                <polygon id="Fill-220" fill="#CCCBCA" points="67.0050336 52.2497311 101.003034 52.2497311 101.003034 50.9266975 67.0050336 50.9266975"></polygon>
                <polygon id="Fill-221" fill="#CCCBCA" points="67.0050336 55.5561933 84.0025378 55.5561933 84.0025378 54.2354034 67.0050336 54.2354034"></polygon>
                <polygon id="Fill-222" fill="#CCCBCA" points="67.0050336 69.1118655 83.1207647 69.1118655 83.1207647 59.4923866 67.0050336 59.4923866"></polygon>
                <polygon id="Fill-223" fill="#CCCBCA" points="84.8865546 69.1118655 101.003034 69.1118655 101.003034 59.4923866 84.8865546 59.4923866"></polygon>
                <polygon id="Fill-224" fill="#474F59" points="67.0050336 74.3411765 101.003034 74.3411765 101.003034 73.0203866 67.0050336 73.0203866"></polygon>
                <polygon id="Fill-225" fill="#CCCBCA" points="67.0050336 77.6528739 101.003034 77.6528739 101.003034 76.3268487 67.0050336 76.3268487"></polygon>
                <polygon id="Fill-226" fill="#CCCBCA" points="67.0050336 80.9593361 84.0055294 80.9593361 84.0055294 79.6370504 67.0050336 79.6370504"></polygon>
                <polygon id="Fill-227" fill="#CCCBCA" points="67.0050336 45.6315714 101.003034 45.6315714 101.003034 44.3085378 67.0050336 44.3085378"></polygon>
                <polygon id="Fill-228" fill="#F77B55" points="67.0050336 42.2989328 101.003034 42.2989328 101.003034 37.1773193 67.0050336 37.1773193"></polygon>
                <polyline id="Fill-229" fill="#F2F2F2" points="5.97197479 80.7551597 0.37394958 79.0492017 5.97197479 77.3417479 5.97197479 80.7551597"></polyline>
                <polyline id="Fill-230" fill="#CCCBCA" points="0.37394958 79.0492017 5.97197479 80.7551597 5.97197479 79.677437 0.37394958 79.0492017"></polyline>
                <polygon id="Fill-231" fill="#FF916E" points="5.97197479 80.7551597 54.6063613 80.7551597 54.6063613 77.3417479 5.97197479 77.3417479"></polygon>
                <polygon id="Fill-232" fill="#F77B55" points="5.97197479 80.7551597 54.6063613 80.7551597 54.6063613 79.677437 5.97197479 79.677437"></polygon>
                <polyline id="Fill-233" fill="#353F49" points="2.56379832 79.7148319 0.37394958 79.0492017 2.56379832 78.3760924 2.56379832 79.7148319"></polyline>
                <polyline id="Fill-234" fill="#232E38" points="2.56379832 79.7148319 0.37394958 79.0492017 2.56379832 79.2952605 2.56379832 79.7148319"></polyline>
                <polygon id="Fill-235" fill="#F2F2F2" points="54.6063613 80.7551597 56.589042 80.7551597 56.589042 77.3417479 54.6063613 77.3417479"></polygon>
                <polygon id="Fill-236" fill="#CCCBCA" points="54.6063613 80.7551597 56.589042 80.7551597 56.589042 79.677437 54.6063613 79.677437"></polygon>
                <path d="M58.5088992,80.7551597 C58.9411849,80.7551597 59.3674874,80.5846387 59.7077815,80.2525714 C60.0435882,79.9227479 60.2058824,79.4859748 60.2058824,79.0477059 C60.2058824,78.6116807 60.0435882,78.1741597 59.7077815,77.8443361 C59.3674874,77.5122689 58.9411849,77.3417479 58.5088992,77.3417479 L56.589042,77.3417479 L56.589042,80.7551597 L58.5088992,80.7551597" id="Fill-237" fill="#353F49"></path>
                <path d="M59.7077815,77.8443361 C59.5140756,77.6543697 59.2852185,77.5175042 59.036916,77.4397227 C59.0937563,77.6147311 59.1371345,77.7979664 59.1371345,77.9767143 C59.1371345,78.4134874 58.9688571,78.8510084 58.6315546,79.180084 C58.3054706,79.5158908 57.8731849,79.677437 57.4311765,79.677437 L56.589042,79.677437 L56.589042,80.7551597 L58.5088992,80.7551597 C58.9411849,80.7551597 59.3674874,80.5846387 59.7077815,80.2525714 C60.0435882,79.9227479 60.2058824,79.4859748 60.2058824,79.0477059 C60.2058824,78.6116807 60.0435882,78.1741597 59.7077815,77.8443361" id="Fill-238" fill="#232E38"></path>
                <polygon id="Fill-239" fill="#474F59" points="14.9579832 69.1118655 94.9831933 69.1118655 94.9831933 17.095479 14.9579832 17.095479"></polygon>
                <path d="M94.9831933,9.09295798 L14.9579832,9.09295798 L14.9579832,27.0948908 C14.9579832,31.1888908 16.5203445,35.2828908 19.6428235,38.4068655 C22.7697899,41.5353277 26.8772521,43.0946975 30.957042,43.0946975 L78.9841345,43.0946975 C83.0661681,43.0946975 87.1691429,41.5353277 90.2931176,38.4068655 C93.4208319,35.2828908 94.9831933,31.1888908 94.9831933,27.0948908 L94.9831933,9.09295798" id="Fill-240" fill="#656A73"></path>
                <polygon id="Fill-241" fill="#353F49" points="23.3561429 9.09295798 44.9689328 9.09295798 44.9689328 8.48790756 23.3561429 8.48790756"></polygon>
                <polygon id="Fill-242" fill="#353F49" points="64.9737395 9.09295798 86.5857815 9.09295798 86.5857815 8.48790756 64.9737395 8.48790756"></polygon>
                <polygon id="Fill-243" fill="#353F49" points="30.957042 69.7034538 37.3553193 69.7034538 37.3553193 7.88360504 30.957042 7.88360504"></polygon>
                <polygon id="Fill-244" fill="#353F49" points="72.5828655 69.7034538 78.9841345 69.7034538 78.9841345 7.88360504 72.5828655 7.88360504"></polygon>
                <polygon id="Fill-245" fill="#656A73" points="27.1666891 28.4934622 41.1740924 28.4934622 41.1740924 23.6956891 27.1666891 23.6956891"></polygon>
                <polygon id="Fill-246" fill="#656A73" points="68.7678319 28.4934622 82.7714958 28.4934622 82.7714958 23.6956891 68.7678319 23.6956891"></polygon>
                <path d="M37.9678487,39.7007311 C37.5078908,39.2497479 36.8953613,38.9947143 36.2574034,38.9947143 L32.0639328,38.9947143 C31.417,38.9947143 30.8186807,39.2497479 30.3736807,39.7007311 C29.9204538,40.1584454 29.6676639,40.7590084 29.6676639,41.407437 L29.6676639,47.1946807 L30.957042,47.1946807 L30.957042,46.2044622 L30.6623697,46.2044622 L30.6623697,41.407437 C30.6623697,41.0200252 30.8007311,40.6722521 31.0789496,40.4097395 C31.3317395,40.1442353 31.6974622,40.0006387 32.0639328,40.0006387 L36.2574034,40.0006387 C36.6410756,40.0006387 36.9836134,40.1442353 37.2625798,40.4097395 C37.5086387,40.6722521 37.6642017,41.0200252 37.6642017,41.407437 L37.6642017,46.2044622 L37.3553193,46.2044622 L37.3553193,47.1946807 L38.6731176,47.1946807 L38.6731176,41.407437 C38.6731176,40.7590084 38.4203277,40.1584454 37.9678487,39.7007311" id="Fill-247" fill="#FFFFFF"></path>
                <path d="M33.6711681,42.2779916 L34.6673697,42.2779916 L34.6673697,39.4928151 C34.6673697,39.397084 34.6165126,39.2983613 34.5387311,39.2205798 C34.4572101,39.1383109 34.3794286,39.1024118 34.2664958,39.1024118 L34.0697983,39.1024118 C33.9695798,39.1024118 33.8529076,39.1383109 33.7721345,39.2205798 C33.6965966,39.2983613 33.6711681,39.397084 33.6711681,39.4928151 L33.6711681,42.2779916" id="Fill-248" fill="#CCCBCA"></path>
                <path d="M79.5667479,39.7007311 C79.1165126,39.2497479 78.520437,38.9947143 77.8742521,38.9947143 L73.6837731,38.9947143 C73.0435714,38.9947143 72.4340336,39.2497479 71.9695882,39.7007311 C71.5171092,40.1584454 71.2688067,40.7590084 71.2688067,41.407437 L71.2688067,47.1946807 L72.5828655,47.1946807 L72.5828655,46.2044622 L72.2777227,46.2044622 L72.2777227,41.407437 C72.2777227,41.0200252 72.4280504,40.6722521 72.6815882,40.4097395 C72.9545714,40.1442353 73.3008487,40.0006387 73.6837731,40.0006387 L77.8742521,40.0006387 C78.2407227,40.0006387 78.6116807,40.1442353 78.8599832,40.4097395 C79.1374538,40.6722521 79.2817983,41.0200252 79.2817983,41.407437 L79.2817983,46.2044622 L78.9841345,46.2044622 L78.9841345,47.1946807 L80.2697731,47.1946807 L80.2697731,41.407437 C80.2697731,40.7590084 80.0214706,40.1584454 79.5667479,39.7007311" id="Fill-249" fill="#FFFFFF"></path>
                <path d="M75.2685714,42.2779916 L76.2700084,42.2779916 L76.2700084,39.4928151 C76.2700084,39.397084 76.2423361,39.2983613 76.1645546,39.2205798 C76.0867731,39.1383109 75.9738403,39.1024118 75.8721261,39.1024118 L75.6769244,39.1024118 C75.5654874,39.1024118 75.4772353,39.1383109 75.4016975,39.2205798 C75.3231681,39.2983613 75.2685714,39.397084 75.2685714,39.4928151 L75.2685714,42.2779916" id="Fill-250" fill="#CCCBCA"></path>
                <path d="M68.1141681,8.48790756 L64.9737395,8.48790756 L64.9737395,4.74841176 C64.9737395,4.36922689 64.8256555,4.01173109 64.5564118,3.74323529 C64.2886639,3.47548739 63.9311681,3.32740336 63.5527311,3.32740336 L46.3899412,3.32740336 C46.0115042,3.32740336 45.6540084,3.47548739 45.3855126,3.74398319 C45.1170168,4.01173109 44.9689328,4.36922689 44.9689328,4.74841176 L44.9689328,8.48790756 L41.8285042,8.48790756 L41.8285042,4.74841176 C41.8285042,3.52933613 42.3026723,2.38430252 43.1642521,1.52197479 C44.0265798,0.660394958 45.1716134,0.186226891 46.3899412,0.186226891 L63.5527311,0.186226891 C64.7710588,0.186226891 65.9160924,0.660394958 66.7776723,1.52197479 C67.64,2.38430252 68.1141681,3.52933613 68.1141681,4.74841176 L68.1141681,8.48790756" id="Fill-251" fill="#353F49"></path>
            </g>
        </g>
    </g>
</svg>