<?xml version="1.0" encoding="UTF-8"?>
<svg width="92px" height="92px" viewBox="0 0 92 92" version="1.1" xmlns="http://www.w3.org/2000/svg" xmlns:xlink="http://www.w3.org/1999/xlink">
    <!-- Generator: Sketch 46.1 (44463) - http://www.bohemiancoding.com/sketch -->
    <title>02</title>
    <desc>Created with Sketch.</desc>
    <defs>
        <path d="M71.9812381,62.6887592 C63.6426178,73.3936749 50.6301984,80.2787619 36.0092381,80.2787619 C21.392599,80.2787619 8.38115378,73.3953479 0.0416190476,62.6926611 L0.0416190476,6.72269747 C1.32438456,5.07634276 2.71768651,3.52034842 4.21036421,2.06586886 L67.8097823,2.06586886 C69.3035447,3.52149749 70.6977559,5.07880137 71.9812381,6.72659963 L71.9812381,62.6887592 L71.9812381,62.6887592 Z" id="path-1"></path>
    </defs>
    <g id="Desktop" stroke="none" stroke-width="1" fill="none" fill-rule="evenodd">
        <g id="Главная-страница" transform="translate(-485.000000, -1259.000000)">
            <g id="02" transform="translate(484.000000, 1259.000000)">
                <path d="M92.5322857,45.6604762 C92.5322857,70.8290476 72.1301905,91.2311429 46.961619,91.2311429 C21.7974286,91.2311429 1.39095238,70.8290476 1.39095238,45.6604762 C1.39095238,20.4919048 21.7974286,0.0876190476 46.961619,0.0876190476 C72.1301905,0.0876190476 92.5322857,20.4919048 92.5322857,45.6604762" id="Fill-529" fill="#F77B55"></path>
                <g id="Group-537" transform="translate(10.952381, 10.952381)">
                    <mask id="mask-2" fill="white">
                        <use xlink:href="#path-1"></use>
                    </mask>
                    <g id="Clip-531"></g>
                    <polyline id="Fill-530" fill="#474F59" mask="url(#mask-2)" points="49.9494286 18.8906667 22.0646667 18.8906667 20.1655238 59.4341905 51.8660952 59.4341905 49.9494286 18.8906667"></polyline>
                    <path d="M4.508,68.1632381 L4.44228571,68.3822857 L2.54752381,74.4104762 L2.5387619,74.4104762 L0.0416190476,82.3202857 L71.9812381,82.3202857 L69.4840952,74.4104762 L66.7394286,65.7427619 C66.3013333,64.3474286 65.5719048,63.0287619 64.5117143,61.8919048 C63.4580952,60.7440952 62.2007619,59.9182857 60.8470476,59.3662857 L46.4359048,53.6535238 C45.7174286,53.364381 45.0624762,52.8561905 44.5871429,52.1705714 C44.1205714,51.4630476 43.8971429,50.6832381 43.8971429,49.8924762 L43.8971429,42.8807619 L28.1366667,42.8807619 L28.1366667,49.8924762 C28.1366667,50.6832381 27.9044762,51.4630476 27.4379048,52.1705714 C26.9581905,52.8561905 26.312,53.364381 25.5891429,53.6535238 L11.182381,59.3662857 C9.83085714,59.9182857 8.57571429,60.7440952 7.51552381,61.8919048 C6.45095238,63.0287619 5.7127619,64.3474286 5.27028571,65.7427619 L4.508,68.1632381" id="Fill-532" fill="#FFFFFF" mask="url(#mask-2)"></path>
                    <path d="M36.013619,7.20009524 C27.3853333,7.20009524 21.2585714,13.478 21.2585714,26.7917143 C21.2585714,38.0529524 27.8628571,47.5618095 36.013619,47.5618095 C44.1621905,47.5618095 50.7730476,38.0529524 50.7730476,26.7917143 C50.7730476,13.478 44.6265714,7.20009524 36.013619,7.20009524" id="Fill-533" fill="#FFFFFF" mask="url(#mask-2)"></path>
                    <path d="M49.2594286,7.91419048 L22.7612381,7.91419048 C22.7612381,7.91419048 20.8905714,21.1534286 23.2869524,23.8477143 C23.3964762,22.7524762 24.3515238,22.443619 26.1104762,22.4414286 C26.1104762,22.4414286 27.595619,20.7941905 28.6558095,16.2489524 C29.4575238,19.3419048 29.0917143,22.5640952 29.0917143,22.5640952 C30.9777143,22.6955238 33.2952381,22.8882857 36.013619,22.9014286 C36.7058095,22.8970476 37.3739048,22.8839048 38.0025714,22.8707619 C38.0025714,22.8707619 38.7999048,22.3757143 39.1525714,21.1906667 C39.6585714,21.8346667 39.7264762,22.7765714 39.7264762,22.7765714 C45.3910476,22.4742857 48.5409524,21.8127619 48.7315238,23.8477143 C51.1454286,21.1534286 49.2594286,7.91419048 49.2594286,7.91419048" id="Fill-534" fill="#474F59" mask="url(#mask-2)"></path>
                    <path d="M25.5891429,53.6535238 C26.312,53.364381 26.9581905,52.8561905 27.4379048,52.1705714 C27.9044762,51.4630476 28.1366667,50.6832381 28.1366667,49.8924762 L28.1366667,46.9068571 L23.6965714,46.9068571 C23.1292381,42.7252381 22.7962857,38.594 22.7962857,34.6905714 C22.7962857,23.133619 23.598,18.8052381 26.7917143,14.904 C30.9229524,9.86809524 36.013619,8.83638095 36.013619,8.83638095 C36.013619,8.83638095 41.1086667,9.86809524 45.2355238,14.904 C48.438,18.8052381 49.2068571,23.133619 49.2068571,34.6905714 C49.2068571,38.594 48.9045714,42.7252381 48.3197143,46.9068571 L43.8971429,46.9068571 L43.8971429,49.8924762 C43.8971429,50.6832381 44.1205714,51.4630476 44.5871429,52.1705714 C45.0624762,52.8561905 45.7174286,53.364381 46.4359048,53.6535238 L54.694,56.9392381 C55.701619,55.6709524 56.2251429,54.146381 56.2251429,52.6064762 L56.2251429,46.9068571 C56.2251429,37.3322857 55.9381905,24.844381 53.9098095,15.727619 C52.1399048,7.9032381 45.4589524,0.354857143 36.013619,2.40733333 C26.5639048,0.354857143 19.8873333,7.9032381 18.119619,15.727619 C16.0759048,24.844381 15.7933333,37.3322857 15.7933333,46.9068571 L15.7933333,52.6064762 C15.7933333,54.146381 16.3190476,55.6709524 17.3485714,56.9392381 L25.5891429,53.6535238" id="Fill-535" fill="#474F59" mask="url(#mask-2)"></path>
                    <path d="M12.5207619,82.3202857 L59.482381,82.3202857 C57.2875238,77.5121905 55.9381905,71.0459048 55.9381905,63.8830476 C55.9381905,61.7298095 56.0674286,59.620381 56.3105714,57.5898095 L56.299619,57.5898095 L52.44,56.0564762 L50.784,62.7133333 C50.002,65.9048571 48.1860952,68.8729524 45.397619,71.0459048 C42.5981905,73.236381 39.5030476,74.152 36.013619,74.152 C32.5088571,74.152 29.4159048,73.236381 26.6274286,71.0459048 C23.8520952,68.8729524 22.0252381,65.9048571 21.2454286,62.7133333 L19.5784762,56.0564762 L15.7298095,57.5898095 L15.6969524,57.5898095 C15.9335238,59.620381 16.0715238,61.7298095 16.0715238,63.8830476 C16.0715238,71.0459048 14.715619,77.5121905 12.5207619,82.3202857" id="Fill-536" fill="#474F59" mask="url(#mask-2)"></path>
                </g>
            </g>
        </g>
    </g>
</svg>