<?xml version="1.0" encoding="UTF-8"?>
<svg width="88px" height="110px" viewBox="0 0 88 110" version="1.1" xmlns="http://www.w3.org/2000/svg" xmlns:xlink="http://www.w3.org/1999/xlink">
    <!-- Generator: Sketch 46.1 (44463) - http://www.bohemiancoding.com/sketch -->
    <title>03</title>
    <desc>Created with Sketch.</desc>
    <defs></defs>
    <g id="Desktop" stroke="none" stroke-width="1" fill="none" fill-rule="evenodd">
        <g id="Главная-страница" transform="translate(-677.000000, -1249.000000)">
            <g id="03" transform="translate(677.000000, 1249.000000)">
                <path d="M87.2551164,66.5499687 C87.2551164,90.327875 67.943444,109.608125 44.1134612,109.608125 C20.2932931,109.608125 0.982512931,90.327875 0.982512931,66.5499687 C0.982512931,42.7702812 20.2932931,23.4962656 44.1134612,23.4962656 C67.943444,23.4962656 87.2551164,42.7702812 87.2551164,66.5499687" id="Fill-399" fill="#474F59"></path>
                <path d="M22.0742069,32.8781094 C21.9626767,32.8032969 21.9885517,32.7231406 22.1473707,32.6420938 C22.2829914,32.6901875 22.2597931,32.7730156 22.0742069,32.8781094 C22.0215647,32.871875 22.1652155,32.8513906 22.0742069,32.8781094 Z M24.5903276,36.3800469 C24.6126336,36.3747031 25.01325,36.3319531 24.8758448,36.48425 C24.7188103,36.5652969 24.6278017,36.5287813 24.5903276,36.3800469 C24.6385086,36.3747031 24.5965733,36.4682188 24.5903276,36.3800469 Z M59.0781336,106.867672 C59.0701034,106.877469 59.0629655,106.877469 59.0495819,106.877469 C59.0540431,106.856094 59.0629655,106.843625 59.0799181,106.853422 L59.0781336,106.867672 Z M38.575319,66.8634688 C38.4441595,66.7530313 38.6681121,66.7815313 38.575319,66.8634688 C38.5592586,66.8536719 38.6047629,66.8358594 38.575319,66.8634688 Z M72.8088362,39.1026875 L72.8088362,39.1026875 L72.8150819,39.1053594 L72.8088362,39.1026875 Z M33.5127414,25.7940781 C33.5386164,25.7869531 33.5653836,25.7869531 33.5930431,25.7789375 C33.555569,25.8359375 33.5279095,25.8386094 33.5127414,25.7940781 C33.5386164,25.7869531 33.5163103,25.7994219 33.5127414,25.7940781 Z M33.5939353,25.775375 C33.6010733,25.775375 33.6010733,25.775375 33.6046422,25.775375 C33.6046422,25.7816094 33.6010733,25.7816094 33.5930431,25.7789375 C33.5930431,25.7789375 33.5939353,25.7789375 33.5939353,25.775375 Z M57.3329095,30.7174531 C57.327556,30.7156719 57.327556,30.7085469 57.327556,30.7085469 C57.3471853,30.7156719 57.360569,30.7361563 57.3471853,30.7664375 C57.3462931,30.7521875 57.3355862,30.7361563 57.3329095,30.7174531 C57.327556,30.7156719 57.3355862,30.7361563 57.3329095,30.7174531 Z M63.9952759,29.0849375 C64.2638405,29.1615313 64.0157974,29.1428281 63.9952759,29.0849375 C63.9952759,29.0849375 64.0122284,29.1285781 63.9952759,29.0849375 Z M17.8663966,69.8158906 C17.7709267,69.7464219 17.9261767,69.8737813 17.8663966,69.8158906 C17.8271379,69.7891719 17.9127931,69.85775 17.8663966,69.8158906 Z M33.7349095,25.7076875 C33.7197414,25.7869531 33.6581767,25.775375 33.6046422,25.775375 C33.6233793,25.7076875 33.6733448,25.7023438 33.7349095,25.7076875 Z M33.7349095,25.7059063 C33.7349095,25.7059063 33.7402629,25.7059063 33.7447241,25.7059063 C33.7402629,25.7076875 33.7349095,25.7121406 33.7349095,25.7059063 Z M32.3608578,25.632875 C32.4126078,25.5660781 32.4920172,25.5776563 32.5580431,25.5749844 C32.5098621,25.647125 32.442944,25.6569219 32.3608578,25.632875 Z M32.3608578,25.632875 L32.3608578,25.6391094 C32.3528276,25.632875 32.3608578,25.632875 32.3608578,25.632875 Z M32.5732112,25.5749844 C32.542875,25.5749844 32.5830259,25.5660781 32.5928405,25.5660781 C32.5830259,25.56875 32.5732112,25.56875 32.5732112,25.5749844 Z M32.7445216,25.5447031 C32.6972328,25.5509375 32.6419138,25.5589531 32.5928405,25.5660781 C32.6374526,25.5322344 32.6892026,25.526 32.7445216,25.5447031 Z M34.6708707,29.6531563 C34.6824698,29.64425 34.7038836,29.6593906 34.7261897,29.6620625 C34.6735474,29.6959063 34.5762931,29.6959063 34.6708707,29.6531563 Z M12.2756121,67.9740781 C12.2425991,68.4104844 12.1515905,67.5617188 12.2756121,67.9740781 C12.2738276,68.0284063 12.2649052,67.9313281 12.2756121,67.9740781 Z M31.7898233,28.9344219 C31.7077371,29.0555469 31.5970991,29.1161094 31.4132974,29.1793438 C31.5051983,28.9798438 31.63725,28.9433281 31.7898233,28.9344219 Z M32.7686121,96.2906094 C32.8810345,96.3333594 32.9443836,96.4179688 32.960444,96.5399844 C32.960444,96.9158281 32.2796638,96.3360313 32.7686121,96.2906094 C32.8408836,96.2808125 32.6552974,96.2995156 32.7686121,96.2906094 Z M18.2447069,51.5732188 C18.230431,51.7255156 18.1617284,51.7949844 18.023431,51.7914219 C17.9547284,51.6667344 18.1795733,51.3095938 18.2447069,51.5732188 C18.2687974,51.6578281 18.2286466,51.5215625 18.2447069,51.5732188 Z M57.2606379,30.4876719 C57.2115647,30.5820781 57.2543922,30.6426406 57.3230948,30.7085469 C57.2481466,30.6755938 56.9474612,30.3024219 57.1776595,30.2418594 C57.2847284,30.2899531 57.3123879,30.3718906 57.2606379,30.4876719 C57.2115647,30.5820781 57.2918664,30.4324531 57.2606379,30.4876719 Z M31.3669009,28.7126563 C31.123319,28.8453594 30.9377328,28.9433281 30.676306,28.924625 C30.8627845,28.7126563 31.0778147,28.7162188 31.3669009,28.7126563 Z M34.4826078,27.2680625 C34.6110905,27.0498594 34.7377888,26.9910781 35.1633879,27.0017656 C34.9519267,27.2342188 34.7288664,27.2769688 34.4826078,27.2680625 Z M78.2720302,42.0150313 C78.0587845,41.9117188 77.9820517,41.7754531 78.0436164,41.5349844 C78.2131422,41.6632344 78.2871983,41.7959375 78.2720302,42.0150313 Z M67.4982155,39.5506719 C67.1573793,39.50525 68.1325991,39.198875 67.7801638,39.6459688 C67.681125,39.6352813 67.5803017,39.6058906 67.4982155,39.5506719 C67.4402198,39.5453281 67.5981466,39.5604688 67.4982155,39.5506719 Z M33.7447241,25.7059063 C34.0391638,25.4663281 34.3907069,25.4235781 34.7538491,25.4529688 C34.4424569,25.6355469 34.1114353,25.73975 33.7447241,25.7059063 Z M33.5653836,36.1565 C33.6501466,36.1734219 33.7447241,36.1529375 33.8865905,36.1404688 C33.4583147,36.6561406 32.9675819,35.9311719 33.0657284,35.9044531 C32.9925647,35.9222656 33.5386164,36.1529375 33.5653836,36.1565 C33.6501466,36.1734219 33.3994267,36.1315625 33.5653836,36.1565 Z M33.6769138,25.4966094 C33.3574914,25.73975 33.0291466,25.9757656 32.5830259,25.9356875 C32.8810345,25.6230781 33.2878966,25.5776563 33.6769138,25.4966094 Z M34.8850086,25.2320938 C34.8127371,25.1296719 34.6896078,25.1964688 34.6173362,25.1047344 C34.816306,24.8838594 35.0929009,24.9622344 35.3364828,24.8954375 C35.3239914,24.9230469 35.0375819,25.4529688 34.8850086,25.2320938 C34.8127371,25.1296719 34.926944,25.2953281 34.8850086,25.2320938 Z M76.5491121,41.9393281 C76.4108147,41.7995 76.1226207,41.8939063 76.0512414,41.6106875 C76.2930388,41.7362656 76.5633879,41.6757031 76.7989397,41.8600625 C76.7088233,41.9304219 76.6222759,42.0150313 76.5491121,41.9393281 C76.4108147,41.7995 76.6222759,42.0150313 76.5491121,41.9393281 Z M69.3014353,38.3456563 L69.3067888,38.3492188 C69.1916897,38.3135938 68.4886034,37.8887656 68.7785819,37.6580938 C68.978444,37.5111406 69.2755603,38.2735156 69.3014353,38.3456563 Z M33.581444,34.3663438 C33.9838448,34.3565469 34.305944,34.4785625 34.661056,34.7439688 C34.1872759,34.8330313 33.8865905,34.6504531 33.581444,34.3663438 Z M11.9633276,68.040875 C11.9544052,68.2314688 11.8625043,68.3053906 11.691194,68.2350313 C11.6260603,68.1824844 11.5930474,67.5617188 11.7090388,67.4299063 C11.791125,67.6311875 11.8812414,67.8315781 11.9633276,68.040875 C11.9927716,68.1245938 11.8812414,67.8315781 11.9633276,68.040875 Z M21.3140172,50.2381719 C21.1775043,49.7251719 20.9794267,49.7171563 21.3265086,49.2665 C21.4594526,49.7465469 21.4594526,50.0377813 21.3140172,50.2381719 C21.2586983,50.0297656 21.4594526,50.0377813 21.3140172,50.2381719 Z M34.2756078,24.9925156 C33.9320948,25.2222969 33.5180948,25.0708906 33.1629828,25.205375 C33.6546078,24.8615938 33.8865905,24.8892031 34.2756078,24.9925156 C33.9320948,25.2222969 34.2149353,24.9738125 34.2756078,24.9925156 Z M30.1944957,60.1481563 C30.1695129,60.13925 30.3310086,59.6351563 30.6584612,59.6084375 C31.0483707,59.85425 30.3854353,60.1730938 30.1944957,60.1481563 C30.158806,60.13925 30.6192026,60.1971406 30.1944957,60.1481563 Z M30.0133707,60.1846719 L30.0133707,60.1846719 C30.0258621,60.1481563 30.062444,60.1330156 30.1079483,60.1303438 C30.081181,60.1481563 30.0526293,60.160625 30.0133707,60.1846719 Z M28.011181,54.0945781 C27.4990345,55.344125 26.207069,53.2173125 28.011181,54.0945781 C27.9344483,54.2744844 27.7069267,53.9467344 28.011181,54.0945781 Z M21.0677586,54.1159531 C21.1864267,54.1284219 21.2542371,54.1889844 21.2720819,54.303875 C21.1971336,54.6138125 20.2272672,54.1765156 20.1255517,54.04025 C20.462819,53.8452031 20.76975,53.9583125 21.0677586,54.1159531 Z M50.1369828,24.2337031 C50.0780948,24.2426094 50.0156379,24.2461719 49.9549655,24.2515156 C50.0156379,24.1971875 50.0780948,24.1882813 50.1369828,24.2337031 C50.0780948,24.2426094 50.1137845,24.2239063 50.1369828,24.2337031 Z M51.7965517,24.6193438 C51.246931,24.4670469 50.6723276,24.4456719 50.1369828,24.2337031 C50.7740431,24.1606719 51.5467241,24.4038125 51.9955216,24.5347344 C52.1436336,24.5801563 51.7608621,24.606875 51.7965517,24.6193438 C51.246931,24.4670469 51.849194,24.6318125 51.7965517,24.6193438 Z M35.3311293,25.262375 C36.0779353,24.6977188 36.2528147,25.020125 37.178069,25.1118594 C36.8845216,25.3799375 36.1698362,25.4387188 35.3311293,25.262375 C35.5416983,25.1047344 36.1698362,25.4387188 35.3311293,25.262375 Z M69.4620388,38.5193281 C69.7172198,38.5193281 70.34625,39.5025781 70.2400733,39.6611094 C69.9438491,40.1215625 69.4531164,38.9503906 69.1542155,38.7687031 C69.2621767,38.6956719 69.366569,38.6164063 69.4620388,38.5193281 Z M49.4927845,27.699125 C49.4508491,27.5468281 50.5509828,27.6171875 50.7267543,27.5806719 C51.0220862,27.5316875 53.213431,27.7534531 52.4425345,28.1034688 C51.8465172,28.3670938 50.9739052,28.6761406 50.4109009,28.1542344 C50.2717112,28.0357813 49.5025991,27.7294063 49.4927845,27.699125 C49.4660172,27.599375 49.5347198,27.8478594 49.4927845,27.699125 Z M59.0442284,32.301875 C59.7803276,33.0606875 58.6373664,33.6404844 58.1270043,33.1550938 C57.870931,32.8968125 58.0270733,32.287625 57.4444397,32.1050469 C57.5970129,32.0587344 57.7531552,32.0106406 57.903944,31.9536406 C57.5051121,31.0184844 58.8559655,32.1050469 59.0442284,32.301875 C59.2092931,32.4746563 58.9915862,32.2439844 59.0442284,32.301875 Z M22.5247888,54.083 C22.2071509,53.9467344 23.5562198,53.9583125 23.7400216,53.8826094 C23.4714569,53.4720313 23.7123621,53.2511563 23.1966466,53.0961875 C23.66775,52.5172813 25.2380948,53.1941563 25.7332888,53.406125 C25.6967069,53.4818281 25.5967759,53.4114688 25.5468103,53.5032031 C25.5869612,53.5361563 26.6246379,54.3884844 25.9251207,54.1034844 C25.1622543,53.7792969 24.7402241,54.2308438 24.2057716,54.5354375 C23.7783879,53.9289219 23.0860086,54.3492969 22.5247888,54.083 C22.4632241,54.0553906 22.6514871,54.14 22.5247888,54.083 Z M20.8946638,52.950125 C20.4744181,52.9902031 21.1659052,52.6197031 21.1132629,52.4861094 C20.8268534,51.8315 18.8710603,51.6827656 18.6908276,51.1635313 C18.7764828,51.1296875 18.8335862,51.0700156 18.8603534,50.9845156 C18.1876034,50.7110938 17.845875,51.5313594 17.2364741,51.4788125 C18.4981034,49.3511094 21.6147026,51.7860781 22.8700862,52.7693281 C22.2142888,52.850375 21.5558147,52.8566094 20.8946638,52.950125 C20.8393448,52.950125 21.2586983,52.8957969 20.8946638,52.950125 Z M35.8611207,34.9906719 C35.9057328,34.9906719 35.9351767,34.9906719 35.9690819,35.0182813 C35.928931,35.0182813 35.7594052,35.0120469 35.8611207,34.9906719 C35.9057328,34.9906719 35.8388147,34.9942344 35.8611207,34.9906719 Z M37.2351724,33.6075313 L37.2458793,33.6030781 C37.2458793,33.6030781 37.2458793,33.6119844 37.2530172,33.6191094 C37.2458793,33.6119844 37.2458793,33.6119844 37.2351724,33.6075313 Z M38.3183534,35.3638438 C38.361181,35.3121875 38.6190388,35.2035313 38.4611121,35.351375 C38.4075776,35.451125 38.1782716,35.522375 38.3183534,35.3638438 C38.3344138,35.3424688 38.287125,35.4003594 38.3183534,35.3638438 Z M38.6627586,35.4003594 C38.7261078,35.45825 38.5592586,35.45825 38.6627586,35.4003594 C38.6707888,35.4119375 38.6475905,35.4092656 38.6627586,35.4003594 Z M37.1602241,33.8043594 C37.041556,33.8916406 35.5095776,35.3362344 35.5488362,35.4725 C35.5836336,35.6034219 37.1334569,35.5099063 37.4011293,35.6604219 C37.385069,35.8376563 37.1718233,35.7450313 37.1388103,35.9008906 C37.3404569,35.9008906 37.9659181,35.5099063 38.0694181,35.6283594 C38.0810172,35.721875 38.0649569,35.821625 38.0230216,35.9124688 C38.704694,36.5893438 38.6368836,35.1171406 38.6707888,35.0414375 C38.1961164,34.9755313 38.7814267,34.2959844 37.9659181,34.5863281 C38.0230216,34.5649531 37.0834914,34.3075625 37.1334569,34.3663438 C37.0576164,34.28975 37.7963922,33.6520625 37.850819,33.5674531 C37.4189741,33.4614688 37.3600862,33.6520625 37.1602241,33.8043594 C36.8961207,33.9922813 37.2119741,33.7616094 37.1602241,33.8043594 Z M60.1416853,33.1729063 C60.3335172,33.1488594 59.896319,32.5316563 59.7830043,32.4114219 C59.9159483,32.4238906 60.0346164,32.4354688 60.1604224,32.3535313 C60.0604914,32.0747656 58.8042155,31.3489063 58.7194526,31.404125 C58.2394267,31.6989219 57.6469784,30.3754531 57.5889828,30.1937656 C58.4000302,30.0806563 58.9086078,30.948125 59.6420302,31.3070469 C60.2674914,31.6071875 62.5168319,32.6821719 62.58375,33.3572656 C62.631931,33.6974844 60.8742155,33.555875 60.6190345,33.9566563 C60.4182802,33.4614688 61.0562328,33.4677031 61.0357112,33.3100625 C61.0169741,33.1916094 60.232694,33.1604375 60.1416853,33.1729063 C60.0935043,33.1791406 60.4093578,33.1301563 60.1416853,33.1729063 Z M37.4341422,24.9622344 C37.2030517,24.9230469 36.9576853,24.9497656 36.712319,24.91325 C36.8390172,24.7983594 37.5653017,24.7769844 37.2458793,24.5739219 C38.2451897,23.9629531 40.3250043,23.8391563 41.466181,23.9789844 C42.7545776,24.1375156 44.0331595,23.7394063 45.3010345,23.9397969 C45.8149655,24.0217344 46.2575172,24.0333125 46.7696638,24.0671563 C47.214,24.1179219 46.7089914,24.5739219 47.214,24.6469531 C47.5111164,24.6861406 48.1080259,25.362125 48.3765905,25.2169531 C48.3658836,25.6872031 48.1562069,25.3558906 48.3034267,25.7994219 C48.3373319,25.8965 48.8708922,26.1939688 48.8459095,26.2331563 C48.7941595,26.3035156 47.3630043,26.1966406 47.424569,26.2153438 C47.3157155,26.1966406 47.450444,26.4424531 47.5450216,26.4032656 C47.8269698,26.4789688 48.4470776,26.381 48.7602543,26.4095 C48.0402155,27.0614375 46.9606034,26.9830625 46.1522328,27.5076406 C45.6632845,27.8264844 44.9218319,27.7962031 44.3855948,27.9939219 C44.3855948,28.5452188 43.9626724,29.2158594 43.6048836,29.7805156 C43.3425647,30.1723906 41.5197155,29.2710781 41.3314526,29.0341719 C40.9352974,28.56125 40.0269957,27.3045781 41.0120302,26.9162656 C42.2058491,26.4424531 41.0191681,26.8316563 40.6649483,26.5724844 C40.9513578,26.1752656 41.266319,26.3088594 41.7222543,26.3756563 C41.4938405,26.0541406 41.2047543,25.9757656 40.8549957,26.1423125 C40.7381121,25.7994219 41.3466207,25.4894844 40.8175216,25.1234375 C40.5837543,24.9649063 39.322125,25.1501563 39.2855431,24.9283906 C39.2070259,24.3797656 40.8237672,24.671 41.103931,24.222125 C39.8994052,23.9674063 38.6047629,25.1448125 37.4341422,24.9622344 C37.2030517,24.9230469 37.6509569,24.9925156 37.4341422,24.9622344 Z M84.606944,81.3272188 C84.6265733,81.2737813 84.6524483,81.2185625 84.6729698,81.1669063 C84.6801078,81.2310313 84.6337112,81.279125 84.606944,81.3272188 Z M83.8958276,83.1120313 C84.0689224,82.6711719 84.2107888,82.2133906 84.4276034,81.7858906 C84.2910905,82.248125 84.0956897,82.6782969 83.8958276,83.1120313 Z M59.0495819,106.877469 C59.1111466,106.998594 53.6265388,108.545609 53.0644267,108.664953 C50.7829655,109.146781 48.4720603,109.44425 46.1379569,109.559141 C41.7017328,109.777344 37.0665388,109.373891 32.8069784,108.078922 C33.3574914,108.138594 34.021319,108.425375 34.5762931,108.333641 C34.0445172,108.005891 33.3905043,108.121672 32.9140474,107.702188 C34.6896078,107.996984 36.3884353,107.860719 38.0230216,108.070016 C37.8481422,107.842016 36.3616681,107.483094 36.372375,107.331688 C36.5802672,107.313875 37.7294741,107.280922 37.7714095,107.243516 C38.3067543,106.828484 36.9103966,106.877469 37.041556,106.579109 C37.0781379,106.501625 37.4609095,106.628094 37.5992069,106.45175 C37.8088836,106.170313 37.5992069,106.025141 37.6777241,105.88175 C37.7392888,105.760625 39.8869138,105.383891 40.1126509,105.484531 C39.8592543,105.635938 39.5701681,105.456922 39.6772371,105.875516 C39.4622069,105.845234 38.7930259,105.863938 38.756444,106.158734 C38.7698276,106.085703 39.4862974,107.077859 39.5094957,107.118828 C39.7539698,107.511594 40.6167672,107.747609 40.6926078,108.209844 C40.8326897,108.989141 44.9155862,108.912547 45.5303405,108.843078 C47.0525043,108.672969 48.4836595,108.127906 49.986194,107.866953 C50.8802198,107.707531 51.7697845,107.456375 52.6763017,107.365531 C53.1054698,107.326344 54.4982586,106.840063 54.8257112,106.9505 C55.031819,107.678141 58.2974224,106.732297 59.0495819,106.877469 C59.0602888,106.896172 58.9326983,106.856094 59.0495819,106.877469 Z M86.126431,66.8901875 C85.9283534,67.713125 86.1192931,67.9705156 85.6276681,68.4291875 C85.6240991,67.8191094 85.4037155,66.644375 86.0327457,66.2836719 C86.1130474,66.4840625 86.1906724,66.644375 86.126431,66.8901875 C86.0452371,67.2304063 86.1906724,66.644375 86.126431,66.8901875 Z M85.5848405,73.9243438 C85.5741336,74.6163594 85.4750948,76.4937969 85.0200517,77.0308438 C85.069125,75.8659063 85.4947241,74.8105156 85.5152457,73.6518125 C85.6187457,73.7604688 85.5875172,73.8486406 85.5848405,73.9243438 C85.5848405,74.0062813 85.5875172,73.8486406 85.5848405,73.9243438 Z M84.9147672,71.5152031 C84.9085216,70.7590625 84.8799698,69.8737813 85.046819,69.1425781 C85.0780474,70.4197344 85.1422888,71.7155938 85.1030302,72.9989844 C84.8987069,72.7309063 84.9147672,71.8393906 84.9147672,71.5152031 C84.910306,71.2417813 84.9147672,71.7752656 84.9147672,71.5152031 Z M84.451694,73.6206406 C84.4418793,73.2145156 84.4615086,73.1886875 84.8710474,72.9295156 C84.7889612,73.2198594 84.4971983,73.3534531 84.451694,73.6206406 Z M84.3232112,78.1476875 C84.2357716,78.1833125 84.1474397,78.2118125 84.056431,78.2420938 C83.8993966,78.2420938 84.3508707,78.0238906 84.3722845,78.0149844 C84.348194,78.087125 84.348194,78.1174063 84.3232112,78.1476875 C84.2562931,78.2456563 84.348194,78.1174063 84.3232112,78.1476875 Z M85.1422888,67.0068594 C85.1324741,66.8572344 85.1199828,66.7414531 85.224375,66.6327969 C85.2921853,66.7779688 85.2252672,66.8786094 85.1422888,67.0068594 Z M85.3983621,65.6433125 C85.3028922,65.4010625 85.4340517,65.1944375 85.4974009,64.913 C85.6009009,65.2104688 85.4394052,65.4162031 85.3983621,65.6433125 Z M83.2864267,50.2809219 C83.1169009,49.8489688 80.8193793,46.4824063 81.0888362,46.2989375 C81.3895216,46.1047813 86.3066638,54.7892656 85.7766724,56.1305469 C85.0200517,54.1524688 84.1287026,52.2287188 83.2864267,50.2809219 C83.2819655,50.2622188 83.4639828,50.6817031 83.2864267,50.2809219 Z M86.5457845,58.8371563 L86.5511379,58.8371563 C85.7061853,55.7395625 85.0780474,52.6677969 83.7914353,49.6610469 C82.2630259,46.0932031 80.2536983,42.7284219 77.8259095,39.6967344 C75.5355259,36.8324844 72.8793233,34.2648125 69.9420647,32.0747656 C68.5109095,31.0060156 67.0208664,30.0316719 65.4710431,29.1490625 C64.7304828,28.7242344 63.9756466,28.3216719 63.2065345,27.9387031 C62.868375,27.7819531 61.6959698,27.4737969 61.5175216,27.186125 C61.5309052,27.3170469 62.2054397,27.6590469 62.2937716,27.7534531 C61.8378362,27.6323281 60.6324181,27.1193281 60.6190345,27.0409531 C60.6404483,26.9884063 60.7412716,27.0409531 60.7305647,26.9501094 C60.0462155,26.5154844 57.5015431,25.5812188 56.9920733,26.2723438 C57.1009267,26.13875 58.7462198,28.0357813 58.7944009,28.3724375 C58.8996853,29.1161094 60.0560302,29.8962969 60.7930216,30.1385469 C61.8262371,30.4814375 61.0526638,30.0227656 61.4862931,29.7805156 C61.7628879,29.64425 62.0207457,30.2480938 62.2839569,30.1109375 C62.2812802,30.1047031 62.2839569,30.0957969 62.2937716,30.0957969 C62.2215,29.950625 62.1385216,29.8107969 62.0600043,29.6718594 C61.9805948,29.6718594 63.9203276,31.6650781 64.1665862,31.2304531 C63.9381724,30.6907344 63.5884138,30.0779844 63.0379009,29.5712188 C62.5516293,29.1161094 61.7860862,29.0733594 61.260556,28.6191406 C60.9973448,28.3840156 60.0105259,27.6688438 59.9043491,27.3348594 C61.2052371,27.3776094 62.7015259,30.1234063 64.0122284,29.0617813 C63.8275345,28.9397656 63.6517629,28.8035 63.4768836,28.6601094 C63.7195733,28.7304688 64.8072155,29.0769219 64.4369353,29.5382656 C63.4063966,29.3556875 65.322931,30.4048438 65.355944,30.5215156 C65.1632198,30.5090469 65.0311681,30.3594219 64.8598578,30.3451719 C64.9330216,30.705875 65.9573147,31.076375 66.0304784,31.6926875 C65.4103707,31.788875 65.6807198,31.3195156 65.2827802,31.8200469 C65.1516207,31.9803594 64.5957543,31.9287031 64.2932845,31.9536406 C63.5830603,32.0142031 62.787181,30.8002813 62.2634353,30.4324531 C62.4864957,31.1066563 62.8576681,31.4281719 63.6107198,31.9019844 C63.977431,32.1103906 63.0967888,32.2012344 63.1101724,32.5049375 C63.1360474,32.5049375 63.3475086,32.6144844 63.3421552,32.6697031 C63.3421552,32.708 63.1414009,32.5316563 63.1101724,32.5049375 C63.182444,32.4595156 62.9834741,33.6921406 62.9691983,33.6734375 C63.5554009,34.353875 62.1875948,34.1561563 62.1545819,34.1775313 C62.2634353,34.3325 62.4793578,34.4144375 62.532,34.6362031 C62.1287069,34.6629219 61.8119612,34.6023594 61.4220517,34.7439688 C61.9805948,34.9114063 65.0731034,36.334625 64.3994612,37.4087188 C64.1817543,37.7578438 62.0894483,37.3214375 61.700431,37.3054063 C60.8911681,37.2510781 61.6442198,38.0757969 61.6656336,38.172875 C61.7932241,38.7900781 62.27325,39.0590469 62.2339914,39.7786719 C62.2000862,40.2827656 62.7149095,40.3005781 62.8772974,40.7280781 C63.0164871,41.10125 62.9326164,41.1350938 63.3278793,41.1903125 C64.0175819,41.2749219 64.0318578,41.1716094 64.6144914,41.6267188 C65.0249224,41.9446719 65.1846336,41.3230156 65.6771509,41.3043125 C66.9021983,41.250875 65.8555991,41.0077344 66.4435862,40.8402969 C67.1725474,40.6372344 66.2437241,39.5025781 66.2847672,39.2834844 C66.3400862,38.9806719 66.2401552,38.6493594 66.6434483,38.5344688 C67.2626638,38.3741563 66.4730302,37.7275625 66.4319871,37.5547813 C66.3124267,37.0453438 68.146875,37.9885156 67.9273836,36.6988906 C68.978444,37.0266406 70.0634095,37.9858438 71.0404138,38.5309063 C71.614125,38.8746875 72.1878362,39.2024375 72.6098664,39.7457188 C73.1068448,40.3949844 71.8916121,40.1304688 71.8148793,40.3183906 C71.7417155,40.5223438 72.8882457,41.0380156 73.0702629,41.0291094 C73.0952457,40.9133281 72.9382112,40.2551563 72.9141207,40.139375 C72.8614784,39.6842656 72.1976509,39.2327188 72.2431552,38.8648906 C72.4564009,38.8871563 72.649125,38.9690938 72.8088362,39.1026875 C72.1949741,38.3403125 71.1974483,38.2646094 70.4925776,37.7070781 C70.058056,37.3579531 69.5316336,37.0782969 69.1158491,36.7229375 C69.1104957,36.7167031 68.3654741,35.7699688 68.8874353,35.9489844 C69.7091897,36.2375469 70.6076767,37.0685 71.4472759,37.5057969 C72.1137802,37.8549219 72.2788448,38.0704531 72.7695776,38.6404531 C72.9614095,38.8622188 73.9919483,40.0547656 74.2194698,40.0912813 C74.2105474,40.0850469 75.059069,40.837625 75.395444,40.9498438 C75.2464397,40.6069531 75.1126034,40.1705469 74.9386164,39.9024688 C74.7093103,39.526625 73.7510431,39.3110938 73.7510431,38.7526719 C73.9669655,38.771375 73.9919483,38.543375 74.456806,38.5620781 C74.2060862,38.5558438 74.7619526,38.1978125 74.7253707,38.2503594 C73.8331293,37.7427031 72.626819,36.249125 72.3038276,35.2427188 C72.5474095,35.2551875 72.6821379,35.5820469 72.9471336,35.4119375 C72.8641552,35.2427188 72.8382802,35.0601406 72.8641552,34.8748906 C72.9382112,34.9514844 73.7751336,35.679125 73.6127457,35.821625 C73.3745172,35.8162813 73.1728707,35.7156406 73.0104828,35.5312813 C73.1229052,35.9552188 73.5493966,35.9650156 73.7242759,36.25625 C73.7403362,36.1404688 73.6609267,36.0433906 73.758181,35.9124688 C74.5049871,36.2224063 76.0021681,37.3909063 76.2073836,38.2165156 C75.8843922,38.2503594 75.258931,37.5636875 75.0447931,37.7302344 C74.9769828,37.9003438 74.9859052,38.0642188 75.0795905,38.2280938 C74.9832284,38.2307656 74.8948966,38.2503594 74.8083491,38.2984531 C74.9243405,38.3919688 74.9912586,38.5166563 75.0117802,38.6645 C74.8904353,38.7010156 74.7690905,38.7410938 74.6441767,38.771375 C74.7494612,39.1872969 76.9372371,41.2660156 77.0880259,41.0558281 C77.1344224,40.9854688 76.9979095,40.7735 77.0362759,40.7405469 C77.1522672,40.609625 77.4966724,41.2107969 77.6715517,41.0923438 C77.8160948,41.0015 77.5305776,40.8109063 77.6920733,40.73075 C78.0257716,40.5624219 79.3364741,43.1256406 79.4935086,43.4248906 C80.127,44.6147656 79.709431,43.8906875 79.2294052,44.0545625 C79.1517802,44.1756875 79.1044914,44.3021563 79.092,44.4482188 C78.3264569,44.2727656 77.4904267,43.8354688 76.863181,43.3892656 C75.879931,42.6794375 77.1861724,45.3290469 76.6133534,44.9950625 C76.2805474,44.80625 76.0824698,44.5221406 75.6604397,44.4847344 C75.0653147,44.4277344 74.8948966,43.7864844 74.3417069,43.5994531 C73.8884483,43.4471563 72.1075345,43.2859531 72.3377328,42.4701406 C72.5259957,41.7727813 71.6275086,41.1956563 71.3277155,40.9284688 C71.1724655,40.7895313 69.1952586,41.0469219 68.874944,41.1448906 C68.328,41.3203438 67.4714483,41.493125 67.1609483,42.0025625 C66.6380948,42.9501875 65.4291078,41.7024219 64.941944,41.89925 C64.6840862,41.9998906 64.9330216,42.7800781 64.7982931,43.0285625 C64.6082457,43.3981719 64.1201897,43.4248906 64.0006293,43.8630781 C63.7873836,44.6726563 64.3994612,45.3379531 64.1201897,46.0807344 C63.8953448,46.6694375 62.7497069,46.9241563 62.7336466,47.4104375 C62.7282931,47.6713906 62.6863578,47.9590625 62.4392069,48.0962188 C61.9163534,48.3936875 62.4552672,49.0732344 62.1278147,49.416125 C60.3754526,51.1938125 62.6917112,52.9421094 62.2937716,54.902375 C62.0724957,56.0094219 61.9386595,56.2374219 62.4186853,57.1868281 C62.5257543,57.4290781 62.4436681,59.1497656 63.3180647,58.4559688 C63.4278103,59.4588125 64.7233448,59.6627656 64.9481897,60.6184063 C65.226569,61.7539531 66.3400862,62.24825 67.2028836,62.925125 C67.5508578,63.1940938 67.8417284,63.5467813 68.2459138,63.7498438 C68.9516767,64.1114375 69.4308103,63.5556875 70.1160517,63.3650938 C70.7254526,63.1860781 71.3607284,63.2519844 71.9424698,63.5218438 C72.2770603,63.6794844 74.7494612,61.9320781 75.41775,62.2625 C75.909375,62.5065313 75.9397112,63.1068125 76.1627716,63.5343125 C76.4839784,64.1381563 77.1674353,63.3463906 77.6242629,63.5467813 C78.4299569,63.9110469 78.6762155,66.872375 77.9891897,67.4183281 C77.4716897,67.7950625 78.648556,69.4124375 78.8100517,69.7392969 C79.2740172,70.6584219 79.6969397,72.2553125 79.5497198,73.2715156 C79.4355129,74.0944531 79.657681,75.3956563 79.1856853,76.120625 C78.7190431,76.8455938 78.445125,77.6142031 78.0685991,78.43625 C77.0880259,80.54525 78.0284483,82.93925 77.1861724,85.1328594 C76.6802716,86.252375 76.7694957,87.4511563 76.4964698,88.6267813 C76.3144526,89.38025 75.395444,90.4739375 75.7514483,91.2621406 C76.3037457,90.7678438 77.1255,90.8319688 77.7518534,90.5193594 C79.0224052,89.8914688 79.6326983,88.4192656 80.5606293,87.4395781 C81.0531466,86.9239063 81.3627543,86.2675156 81.6545172,85.6244844 C81.934681,85.0215313 82.5012543,84.6287656 82.7608966,84.0347188 C83.409556,82.5295625 84.0020043,81.0306406 84.6569095,79.5290469 C86.0202543,76.2818281 86.2459914,73.1690938 86.725125,69.6912031 C87.2221034,66.0066875 87.2354871,62.5065313 86.5457845,58.8371563 Z M18.1144397,32.2297344 L18.1090862,32.2297344 L18.1144397,32.2297344 Z M17.7093621,32.5717344 C17.7093621,32.5717344 17.6995474,32.5752969 17.6977629,32.5752969 L17.7093621,32.5717344 Z M32.3608578,25.6391094 C32.3608578,25.6391094 32.3528276,25.6391094 32.3492586,25.6391094 C32.3528276,25.6355469 32.3528276,25.632875 32.3608578,25.632875 L32.3608578,25.6391094 Z M28.4947759,97.2979063 C28.4787155,97.3077031 28.4573017,97.3130469 28.4412414,97.3166094 C28.4903147,97.2765313 28.506375,97.2702969 28.4947759,97.2979063 Z M31.7898233,101.724313 C31.6301121,101.69225 31.6461724,101.628125 31.8371121,101.537281 C31.9718405,101.591609 31.9548879,101.658406 31.7898233,101.724313 C31.7220129,101.724313 31.8344353,101.707391 31.7898233,101.724313 Z M30.2337543,101.044766 C30.0785043,100.957484 30.0785043,100.896922 30.2301853,100.871984 C30.398819,100.942344 30.4023879,101.002016 30.2337543,101.044766 C30.1695129,101.039422 30.2935345,101.059906 30.2337543,101.044766 Z M29.0559957,89.0622969 C28.8454267,89.1344375 29.2986853,88.9750156 29.0559957,89.0622969 C29.001569,89.081 29.0925776,89.0471563 29.0559957,89.0622969 Z M28.9185905,77.9419531 C28.794569,77.816375 28.9926466,78.0149844 28.9185905,77.9419531 C28.9069914,77.9259219 28.942681,77.9597656 28.9185905,77.9419531 Z M28.0352716,95.7891875 C27.6917586,95.7321875 28.2146121,95.5184375 28.0352716,95.7891875 C27.9487241,95.7776094 28.0433017,95.7776094 28.0352716,95.7891875 Z M26.0402198,60.1089688 C25.8216207,60.075125 26.2820172,60.1303438 26.0402198,60.1089688 C26.0143448,60.1089688 26.0678793,60.1125313 26.0402198,60.1089688 Z M13.8379267,56.0815625 C13.7299655,56.1216406 14.1528879,56.0156563 13.8379267,56.0815625 C13.8236509,56.0940313 13.8941379,56.0735469 13.8379267,56.0815625 Z M8.84494397,52.5021406 C8.44700431,52.4923438 9.15098276,52.4923438 8.84494397,52.5021406 C8.79676293,52.5021406 8.88063362,52.5021406 8.84494397,52.5021406 Z M21.2274698,33.712625 C21.3077716,33.9156875 21.2462069,34.0225625 21.0106552,34.0590781 C21.0998793,33.9156875 21.161444,33.8097031 21.2274698,33.712625 Z M22.4409181,35.3273281 C23.3170991,35.0512344 23.6311681,34.5596094 24.1584828,35.2266875 C24.3547759,35.4725 24.3208707,36.11375 23.8515517,35.9650156 C23.981819,36.006875 22.4355647,35.8590313 22.7192974,35.6907031 C22.4087974,35.88575 21.8092112,36.0184531 21.4442845,35.8590313 C21.7815517,35.6675469 22.0822371,35.4484531 22.4409181,35.3273281 C22.6577328,35.2605313 22.0822371,35.4484531 22.4409181,35.3273281 Z M21.7521078,33.7250938 C21.8912974,33.6155469 22.2241034,33.0874063 22.0581466,32.8781094 C22.1473707,32.9903281 21.4505302,32.8032969 21.7690603,32.6821719 C21.8984353,32.6420938 22.6925302,32.2083594 22.8183362,32.3410625 C23.0458578,32.5752969 21.8297328,33.8497813 21.5870431,33.9593281 C21.6084569,33.8284063 21.6825129,33.7740781 21.7521078,33.7250938 C21.9501853,33.570125 21.6825129,33.7740781 21.7521078,33.7250938 Z M22.4569784,31.2856719 C22.3891681,31.4005625 22.3320647,31.4620156 22.1919828,31.4593438 C22.2464095,31.3373281 22.3320647,31.3221875 22.4569784,31.2856719 Z M22.732681,30.2418594 C22.8085216,30.2418594 23.8176466,29.6104063 23.8515517,29.87225 C23.8676121,29.9452813 22.6184741,30.2632344 22.732681,30.2418594 Z M24.104056,34.1659531 C24.1013793,34.1989063 23.8577974,34.6718281 23.6998707,34.4803438 C23.5812026,34.353875 24.0612284,33.9522031 24.104056,34.1659531 C24.0790733,34.28975 24.0915647,34.1071719 24.104056,34.1659531 Z M23.9737888,29.0849375 C24.055875,29.0368438 24.676875,28.6574375 24.758069,28.7456094 C24.9623922,28.9940938 23.7551897,29.3049219 23.6918405,29.3102656 C23.7641121,29.1615313 23.8827802,29.1365938 23.9737888,29.0849375 C24.1932802,28.9611406 23.8827802,29.1365938 23.9737888,29.0849375 Z M25.0623233,36.3257188 C25.6262198,36.5929063 25.3023362,37.4701719 24.8089267,36.7870625 C24.7982198,37.1931875 24.0790733,37.8816406 23.6998707,37.9671406 C23.848875,37.8041563 23.897056,37.6269219 23.8515517,37.4363281 C23.7302069,37.3365781 23.4973319,37.6091094 23.3626034,37.6091094 C23.4241681,37.8486875 24.3877888,35.9525469 23.5740647,36.5047344 C23.2751638,36.7265 21.3229397,38.7989844 21.2105172,38.685875 C21.0285,38.5015156 22.0742069,36.9785469 22.1500474,36.9197656 C22.8183362,36.3711406 24.2129095,35.9311719 25.0623233,36.3257188 Z M25.5173664,37.1237188 C25.4843534,37.1237188 25.3701466,37.089875 25.5173664,37.1237188 C25.5280733,37.1237188 25.4718621,37.11125 25.5173664,37.1237188 Z M25.9804397,36.1885625 C25.9081681,36.2589219 25.8430345,36.25625 25.7779009,36.1885625 C25.8742629,36.1529375 25.9634871,36.1226563 25.9804397,36.1885625 C26.0072069,36.25625 25.9634871,36.1226563 25.9804397,36.1885625 Z M25.8912155,27.7668125 C26.3078922,27.4987344 26.7540129,27.2983438 27.3027414,27.1772188 C26.9039095,27.5076406 26.3658879,27.6447969 25.8805086,27.7783906 L25.8912155,27.7668125 Z M26.1463966,37.460375 C27.7087112,37.6091094 25.2229267,38.0829219 24.9552543,37.8041563 C25.3085819,37.4995625 25.7216897,37.4113906 26.1463966,37.460375 C26.2748793,37.474625 25.7216897,37.4113906 26.1463966,37.460375 Z M24.6385086,38.3919688 C24.6492155,38.3884063 22.7549871,39.1445469 22.9004224,38.6769688 C22.8522414,38.8257031 23.5472974,38.1434844 23.4018621,38.2102813 C23.5562198,38.1434844 24.8276638,38.0642188 25.1952672,38.0704531 C25.0007586,38.2592656 24.8232026,38.3278438 24.6385086,38.3919688 C24.2129095,38.5496094 24.8232026,38.3278438 24.6385086,38.3919688 Z M30.9261336,27.6813125 C31.064431,27.741875 31.0528319,27.8024375 30.890444,27.8754688 C30.7708836,27.8024375 30.7887284,27.741875 30.9261336,27.6813125 C30.9760991,27.6813125 30.8627845,27.6893281 30.9261336,27.6813125 Z M31.1447328,27.9235625 C31.245556,27.8327188 31.3669009,27.7864063 31.4998448,27.7962031 C31.6176207,27.9654219 30.7682069,28.0625 31.1447328,27.9235625 C31.193806,27.8353906 31.097444,27.9440469 31.1447328,27.9235625 Z M36.010125,27.5316875 C35.8718276,27.6813125 35.6871336,27.5958125 35.5202845,27.6688438 C35.6924871,27.328625 35.7263922,27.3232813 36.010125,27.5316875 Z M35.1366207,28.1061406 C35.0607802,28.1088125 34.9876164,28.1088125 34.8627026,28.1088125 C35.2490431,27.7864063 35.1758793,28.1061406 35.1366207,28.1061406 C35.0607802,28.1088125 35.1946164,28.1061406 35.1366207,28.1061406 Z M29.7733578,32.3330469 C29.5610043,32.5842031 29.5610043,32.5842031 29.25675,32.52275 C29.4164612,32.4203281 29.6279224,32.4595156 29.7733578,32.3330469 Z M30.2212629,33.6582969 C29.0176293,34.781375 29.9526983,33.6734375 29.6038319,34.0225625 C29.6127543,34.0412656 29.6038319,34.0528438 29.5859871,34.0590781 C29.4878405,33.9522031 30.1944957,33.6636406 30.2212629,33.6582969 C30.0660129,33.8043594 30.010694,33.6974844 30.2212629,33.6582969 Z M29.8527672,35.08775 C29.5030086,35.0628125 30.2212629,35.0957656 29.8527672,35.08775 C29.8072629,35.0841875 29.903625,35.0904219 29.8527672,35.08775 Z M31.0849526,31.4076875 C31.1688233,31.3097188 31.2348491,31.3275313 31.2821379,31.4522188 C31.193806,31.5528594 31.1268879,31.5341563 31.0849526,31.4076875 C31.0929828,31.3533594 31.0778147,31.4646875 31.0849526,31.4076875 Z M32.3233836,33.7651719 C32.5214612,33.8159375 32.0458966,33.7250938 32.3233836,33.7651719 C32.3367672,33.7705156 32.2752026,33.7589375 32.3233836,33.7651719 Z M34.5861078,32.1718438 C34.7627716,32.1469063 34.8992845,32.1958906 34.9911853,32.3205781 C34.9992155,32.3864844 34.0721767,32.430125 33.9320948,32.6697031 C34.0507629,32.2626875 34.3907069,32.3294844 34.5861078,32.1718438 C34.6815776,32.2902969 34.3907069,32.3294844 34.5861078,32.1718438 Z M36.8309871,32.366 C36.5918664,32.5752969 36.3366853,32.6180469 36.0672284,32.69375 C36.2563836,32.4114219 36.5445776,32.4541719 36.8309871,32.366 Z M34.021319,102.543688 C34.1970905,102.581094 34.6583793,102.419891 34.7931078,102.383375 C34.4727931,102.125094 33.7786293,102.094813 33.3699828,101.851672 C33.4021034,101.864141 32.0717716,101.059906 32.3608578,101.724313 C32.4295603,101.881953 32.6802802,101.736781 32.7953793,101.815156 C32.6374526,102.058297 32.5669655,101.985266 32.7400603,102.092141 C32.7400603,102.085906 31.2634009,101.287016 32.749875,101.239813 C31.7175517,100.316234 32.8105474,100.601234 32.4920172,100.018766 C32.2671724,99.6251094 33.3574914,99.2457031 32.7686121,98.9037031 C32.4964784,98.7425 32.1815172,98.7727813 31.896,98.5697188 C31.485569,98.2784844 31.8745862,97.75925 32.254681,97.8073438 C32.287694,97.8073438 32.4920172,96.8819844 32.5580431,96.73325 C32.4509741,96.6878281 31.6898922,95.7473281 31.8745862,95.5469375 C32.0940776,95.3100313 33.089819,96.1596875 33.3325086,95.5317969 C33.4279784,95.3073594 32.986319,94.6972813 33.0220086,94.446125 C33.4725905,94.403375 36.4107414,94.5120313 35.9146552,93.1654063 C35.7406681,92.7013906 34.5013448,91.9969063 34.6325043,91.6139375 C35.0607802,91.681625 35.7727888,92.2997188 36.2358621,92.0547969 C36.6150647,91.8561875 36.9148578,92.2703281 37.3110129,91.8267969 C37.3797155,91.7475313 38.0364052,91.0492813 37.8481422,90.9165781 C37.6509569,90.9130156 37.540319,91.0252344 37.5189052,91.2621406 C37.2887069,90.9468594 37.6911078,90.7224219 37.902569,90.4944219 C37.9552112,90.5647813 38.0007155,90.6369219 38.050681,90.698375 C38.2942629,90.327875 39.6638534,88.5555313 39.7022198,88.5190156 C40.3981681,87.713 39.8262414,86.6291094 40.5150517,85.9789531 C41.1449741,85.3884688 41.8266466,84.9992656 42.6136034,84.6893281 C42.8571853,84.59225 43.7235517,84.1344688 43.9002155,84.1870156 C45.3429698,84.6287656 45.1716595,82.9054063 46.0879914,82.1287813 C47.0203836,81.3521563 46.3315733,77.3648281 47.0989009,77.0673594 C47.5111164,76.9034844 48.740625,75.3956563 49.3723319,74.7045313 C49.9924397,74.0419063 50.0700647,73.1869063 49.8300517,72.3434844 C49.4660172,71.0538594 49.0984138,71.7877344 48.167806,71.2293125 C47.417431,70.7804375 46.8463966,69.8951563 45.9184655,69.7633438 C45.3750905,69.6912031 44.8058405,69.85775 44.26425,69.693875 C44.0402974,69.6270781 43.4201897,69.2512344 43.1864224,69.5674063 C43.2247888,69.5148594 42.6840905,69.7633438 42.7233491,69.779375 C42.6617845,69.7464219 42.715319,69.0775625 42.5368707,68.9119063 C42.2593836,68.6438281 41.2913017,68.3721875 40.9451121,68.2804531 C40.1429871,68.0738281 39.9449095,69.0267969 39.7307716,67.8921406 C39.0722974,67.713125 38.4147155,66.9427344 38.5280302,66.7503594 C38.5931638,66.6693125 37.4983836,64.3723906 37.3467026,64.5843594 C37.3324267,63.8139688 34.9322974,62.8547656 34.3237888,63.2190313 C33.7741681,63.6189219 32.7703966,62.8636719 32.4340216,62.5029688 C32.05125,62.0906094 32.0628491,61.6542031 31.4248966,61.3887969 C31.1545474,61.2747969 30.6905819,61.329125 30.7887284,60.8642188 C30.9020431,60.3725938 29.6127543,60.2728438 29.4878405,59.7927969 C29.6734267,59.8266406 29.826,59.7357969 29.9955259,59.690375 C29.4940862,59.8631563 28.8846853,59.4988906 28.3903836,59.9023438 C27.6721293,60.4999531 27.2376078,59.6235781 26.4506509,59.7740938 C25.4540172,59.9655781 26.1231983,59.6022031 25.4932759,59.2165625 C25.7555948,59.3804375 24.3235474,58.5637344 24.6617069,58.5940156 C24.3601293,58.5575 24.7000733,59.0865313 24.3717284,59.2040938 C23.848875,59.3955781 23.4000776,59.5113594 23.7355603,60.13925 C24.3083793,61.2810313 22.5372802,60.7430938 23.3715259,59.9655781 C23.5249914,59.8319844 23.5669267,58.3455313 23.7302069,58.40075 C23.5205302,58.3277188 21.9037888,59.376875 21.7182026,59.5959688 C21.1971336,58.7676875 20.3254138,61.6542031 20.0300819,61.6746875 C19.8784009,60.9639688 19.2011897,60.6798594 18.622125,60.4643281 C18.1090862,60.2701719 17.6049698,61.471625 16.9554181,60.8125625 C15.7874741,59.6351563 16.2942672,57.7363438 16.8867155,56.3888281 C17.1401121,55.7671719 14.7417672,55.5783594 14.4428664,55.8268438 C13.857556,56.3095625 14.5365517,54.8435938 14.5294138,54.8863438 C14.5963319,54.2949688 14.7310603,53.9039844 14.9942716,53.9128906 C15.1468448,53.5637656 16.0399784,51.9650938 15.9525388,51.7736094 C15.5885043,50.9364219 14.0725862,52.4202031 13.9262586,52.793375 C13.7817155,53.15675 13.4872759,53.363375 13.347194,53.6902344 C13.2044353,54.0215469 12.9242716,53.6180938 12.6824741,53.7516875 C12.027569,54.1212969 11.0933922,53.9289219 11.2352586,52.9812969 C11.3851552,51.8377344 10.9479569,49.5826719 12.2372457,48.7998125 C12.6253707,48.5566719 12.6869353,47.4220156 13.136625,47.022125 C13.1955129,46.9704688 14.4964009,46.2205625 14.3643491,46.0691563 C14.55975,46.2722188 15.5742284,45.8625313 15.7116336,46.1288281 C15.8062112,46.3479219 16.4084741,46.5785938 16.626181,46.4539063 C16.6110129,46.4824063 16.7225431,45.9480313 16.7225431,45.9417969 C16.7064828,45.9346719 16.3049741,45.8839063 16.3272802,45.7565469 C16.3683233,45.5810938 17.587125,45.6986563 17.6263836,45.7048906 C18.1974181,45.7440781 18.6319397,46.224125 19.0593233,45.9346719 C19.7213664,45.4840156 19.3136121,48.4417813 19.5786078,48.7116406 C19.7231509,48.8728438 19.6232198,49.2273125 19.9007069,49.1997031 C20.2790172,49.1578438 20.3959009,45.3584375 21.3818276,44.5702344 C22.0982974,43.9931094 22.8754397,43.4774375 23.66775,43.046375 C23.9238233,42.9163438 24.5787284,42.5975 24.7161336,42.35525 C24.6849052,42.2332344 24.5608836,42.0845 24.4288319,42.2118594 C24.3904655,41.9820781 24.7866207,42.1236875 24.8553233,41.8814375 C24.9275948,41.635625 24.6518922,41.5563594 24.6822284,41.47175 C24.6724138,41.493125 24.9275948,40.9712188 24.8428319,41.0433594 C24.8490776,41.0558281 24.8553233,41.0807656 24.858,41.0994688 C25.2595086,41.1627031 24.7723448,40.7254063 24.7553922,40.6648438 C25.272,40.9311406 25.0560776,40.096625 25.560194,40.0547656 C25.1988362,40.2061719 25.268431,40.609625 25.3183966,40.859 C25.4174353,41.3969375 25.9010302,40.1064219 25.8430345,40.1589688 C26.3266293,39.9576875 27.08325,39.5542344 27.597181,39.1872969 C27.4785129,39.1392031 27.3473534,39.2353906 27.2054871,39.1294063 C27.7381552,38.9379219 28.3314957,39.0020469 28.8454267,38.7410938 C28.813306,38.2040469 29.1380819,37.645625 29.7376681,37.5432031 C30.6584612,37.3909063 31.7380733,36.8298125 32.6552974,36.5172031 C32.5178922,36.8351563 32.7391681,36.5929063 32.986319,36.7113594 C32.6892026,35.9311719 31.0528319,38.1550625 31.8308664,37.6999531 C32.4866638,37.317875 34.6994224,36.9785469 35.0027845,36.3408594 C34.9920776,36.3070156 34.8546724,35.8821875 34.8564569,35.8821875 C34.3121897,35.8821875 34.2657931,36.5528281 33.5939353,36.5528281 C32.3733491,36.5350156 33.1076638,35.7886719 32.856944,35.451125 C32.6419138,35.5027813 32.4554353,35.4395469 32.3055388,35.2792344 C32.4295603,35.2480625 33.9383405,34.9025 33.1388922,34.7208125 C31.8469267,34.4473906 30.9930517,35.8821875 29.9286078,35.8465625 C30.7191336,35.3638438 31.7978534,34.3325 32.7614741,34.2051406 C33.788444,34.0653125 35.208,34.5649531 36.113625,33.9317188 C36.9103966,33.3724063 37.4689397,33.7856563 37.9204138,32.8781094 C38.0604957,32.6322969 37.3324267,32.32325 37.145056,32.2805 C37.229819,32.1896563 37.3922069,32.2805 37.4457414,32.1290938 C36.2403233,31.5920469 35.9869267,31.0523281 35.8450603,29.6620625 C35.2267371,30.1082656 33.1629828,31.0665781 34.2657931,29.5106563 C33.8696379,29.337875 32.6151466,28.2940625 32.1360129,29.0163594 C31.9102759,29.337875 31.5578405,29.8811563 31.193806,30.0477031 C30.3720517,30.420875 31.1019052,30.3469531 30.8253103,30.8973594 C30.3604526,31.8013438 29.2442586,31.6739844 28.7124828,32.46575 C28.3814612,32.9636094 28.2743922,33.3127344 27.7506466,33.5451875 C27.2982802,33.7464688 27.1296466,33.2129844 27.3473534,32.7872656 C27.5088491,32.9636094 27.6569612,32.9903281 27.7881207,32.8602969 C27.8255948,32.6697031 27.545431,32.7596563 27.4606681,32.6821719 C27.6221638,32.401625 27.8175647,32.1469063 28.0433017,31.9144531 C27.9674612,31.8681406 26.8102241,31.6855625 26.8521595,31.38275 C26.924431,30.7521875 26.1330129,31.09775 25.9920388,30.9089375 C26.6094698,30.1323125 26.6157155,29.7680469 27.8255948,29.1615313 C28.2449483,28.9495625 30.5736983,27.76325 31.0037586,28.0607188 C30.9457629,28.3234531 30.6584612,28.2700156 30.5058879,28.4089531 C30.8413707,28.4935625 31.8130216,28.6004375 32.1458276,28.3670938 C32.0717716,28.3092031 31.6800776,27.6590469 31.8844009,27.5076406 C31.8496034,27.53525 32.5517974,27.5201094 32.6053319,27.5049688 C32.9809655,27.414125 33.3905043,27.3687031 33.6046422,26.9884063 C33.788444,26.6526406 35.0206293,26.2153438 35.3132845,26.381 C36.9211034,27.2921094 33.1264009,28.2602188 33.0969569,28.1542344 C33.1683362,28.4205313 34.1944138,27.9725469 34.4469181,28.6761406 C34.5084828,28.8453594 35.6746422,29.2194219 35.7897414,29.0555469 C35.854875,28.9762813 35.4587198,28.5514531 35.437306,28.4481406 C36.660569,29.0368438 36.5918664,28.7340313 36.3884353,27.9173281 C36.2010647,27.1380313 37.1031207,27.9654219 37.1566552,27.9903594 C37.359194,28.0972344 38.1854095,27.6225313 38.3067543,27.4533125 C38.0114224,27.2262031 37.4921379,27.2315469 37.2351724,26.9501094 C36.9915905,26.70875 37.876694,26.6526406 37.5653017,26.3970313 C37.200375,26.0906563 36.6079267,26.1725938 36.8104655,25.5776563 C36.6043578,25.5206563 36.4009267,25.5447031 36.2126638,25.6533594 C36.2661983,25.7655781 36.3884353,25.6809688 36.4348319,25.7442031 C36.2340776,25.8662188 36.010125,25.8840313 35.7781422,25.8786875 C35.8504138,25.775375 36.0520603,25.775375 36.058306,25.5749844 C35.4283836,25.5019531 35.0929009,25.8786875 34.5441724,26.0416719 C34.6994224,25.8207969 34.9644181,25.7513281 35.1544655,25.5812188 C34.5495259,25.6569219 33.9775991,25.8813594 33.503819,26.2723438 C33.5760905,26.3400313 33.6474698,26.4095 33.6920819,26.4941094 C33.2343621,26.9037969 32.6151466,27.0249219 32.0789095,27.2742969 C32.1663491,26.9100313 32.5580431,27.0017656 32.6892026,26.7310156 C32.4920172,26.7336875 32.3001853,26.772875 32.1208448,26.8610469 C32.3465819,26.8316563 33.0291466,26.1538906 33.1852888,25.982 C32.1993621,25.8724531 31.7898233,27.1344688 30.8654612,26.9554531 C31.0572931,26.7336875 31.4489871,26.8432344 31.5783621,26.4941094 C31.2348491,26.5368594 29.9375302,27.414125 29.7251767,26.9554531 C29.7126853,26.9287344 32.099431,25.982 32.3492586,25.6391094 C32.1913319,25.6168438 32.0119914,25.7869531 31.8629871,25.5936875 C31.9780862,25.4600938 32.1752716,25.4529688 32.3055388,25.3077969 C31.5266121,25.3015625 29.1960776,26.2482969 29.3754181,26.7951406 C29.072056,27.0373906 28.7490647,27.1041875 28.3814612,26.9501094 C28.5242198,26.7256719 29.0319052,26.723 28.6223664,26.3934688 C27.8675302,26.673125 27.138569,26.9768281 26.4015776,27.2956719 C24.7304095,28.0420156 23.0797629,28.9183906 21.516556,29.8811563 C18.9344095,31.4735938 16.8037371,33.3572656 14.6748491,35.4903125 C13.5399181,36.6383281 9.23039224,41.6596719 9.24288362,42.7070469 C9.25715948,43.4836719 8.80211638,44.1632188 8.50946121,44.8614688 C8.27301724,45.4314688 8.25606466,46.2303594 7.96519397,46.7531563 C7.34240948,47.8682188 7.62971121,49.1551719 7.34687069,50.4314375 C7.69930603,50.171375 8.43094397,44.3092813 9.0635431,44.5274844 C9.1884569,44.5702344 8.67184914,46.9606719 8.54068966,47.2581406 C8.00802155,48.4872031 8.71110776,49.9896875 8.35867241,51.27575 C8.32298276,51.4004375 8.14275,52.0559375 8.13828879,52.1832969 C7.54405603,52.6392969 8.29621552,53.3170625 8.29175431,53.8184844 C8.29175431,54.1159531 9.80856466,55.4394219 10.0976509,55.6086406 C10.7356034,55.9880469 10.8623017,55.3111719 11.4342284,55.4394219 C11.9570819,55.5480781 12.1069784,56.4894688 12.382681,56.8893594 C12.7600991,57.4451094 14.1725172,57.3872188 14.4116379,57.6481719 C14.5758103,57.845 14.4428664,58.9288906 15.0826034,59.0794063 C15.0754655,59.0072656 15.0701121,58.6198438 15.158444,58.5637344 C15.3565216,58.4452813 15.7687371,59.1649063 15.6286552,59.2958281 C15.4225474,59.34125 15.2432069,59.2717813 15.0861724,59.0794063 C15.0861724,59.1747031 14.9844569,60.5854531 15.3966724,60.3093594 C15.4073793,60.2238594 15.4225474,60.1330156 15.4377155,60.0475156 C15.9730603,60.28175 15.9355862,61.0708438 16.3201422,61.1795 C16.8429957,61.3246719 17.2436121,61.9935313 17.6361983,62.1752188 C17.9930948,62.3569063 17.894056,60.93725 18.5748362,60.8668906 C19.1191034,60.8187969 19.4188966,62.2357813 19.6125129,62.576 C19.8944612,63.0765313 19.2270647,64.2753125 19.5964526,64.6600625 C19.971194,65.0510469 18.6578147,66.0004531 18.5980345,66.3985625 C18.5569914,66.7049375 17.8904871,66.9908281 17.9127931,67.1030469 C17.9627586,67.442375 17.7673578,67.8885781 17.6486897,68.2038594 C17.3140991,69.0873594 17.4782716,69.1630625 18.0519828,69.5763125 C18.0707198,69.5905625 16.988431,71.7307344 17.609431,72.2775781 C18.5944655,73.085375 19.8882155,75.0714688 20.2005,76.3210156 C20.8420216,78.0390313 21.8217026,79.0890781 23.46075,79.9414063 C24.7982198,80.6387656 25.73775,81.8313125 25.73775,83.430875 C25.7823621,84.3749375 25.6494181,85.5514531 26.0473578,86.4411875 C26.3266293,87.0566094 25.7939612,88.0674688 26.1963621,88.6285625 C26.4506509,88.9750156 26.1133836,89.1682813 26.2686336,89.4978125 C26.4274526,89.8424844 26.7870259,90.4187188 26.7789957,90.826625 C26.769181,91.4999375 26.776319,92.2997188 26.8262845,92.9676875 C26.8352069,93.1983594 26.6246379,93.5866719 26.7379526,93.7318438 C26.8967716,93.9170938 27.8006121,96.1516719 27.8006121,96.8036094 C27.8006121,96.9630313 28.502806,96.7635313 27.8710991,96.1231719 C28.6223664,95.7054688 28.4697931,97.4706875 28.5215431,97.4858281 C27.8398707,97.2578281 28.2815302,97.4404063 28.3332802,98.307875 C28.3662931,98.820875 28.1985517,98.5750625 28.6223664,98.6730313 C29.2835172,98.820875 28.6223664,99.2670781 28.8713017,99.6251094 C29.3754181,100.347406 30.1427457,101.014484 30.6682759,101.569344 C31.5346422,102.474219 33.0023793,102.334391 34.021319,102.543688 C34.1596164,102.571297 33.8321638,102.506281 34.021319,102.543688 L34.021319,102.543688 Z" id="Fill-400" fill="#FFFFFF"></path>
                <path d="M50.7804956,43.7177182 C50.7804956,44.7694838 47.9333438,45.6224531 44.4196793,45.6224531 C40.9060147,45.6224531 38.0583319,44.7694838 38.0583319,43.7177182 C38.0583319,42.6659525 40.9060147,41.8124531 44.4196793,41.8124531 C47.9333438,41.8124531 50.7804956,42.6659525 50.7804956,43.7177182" id="Fill-401" fill="#232E38"></path>
                <g id="Group-10" transform="translate(28.000000, 0.000000)">
                    <path d="M16.5396925,0.184665465 C7.65135836,0.184665465 0.439398707,7.38492263 0.439398707,16.2537481 C0.439398707,19.9540316 1.78950813,23.2680031 3.77508362,26.0478148 C16.5396925,43.9019725 16.5396925,43.9019725 16.5396925,43.9019725 C16.5396925,43.9019725 16.5396925,43.9019725 29.304984,26.0457708 C31.2898769,23.2666405 32.6372561,19.9431304 32.6372561,16.2537481 C32.6372561,7.38492263 25.4341697,0.184665465 16.5396925,0.184665465" id="Fill-402" fill="#F77B55"></path>
                    <path d="M28.5253652,16.2528916 C28.5253652,22.8695807 23.1654844,28.2190703 16.5388344,28.2190703 C9.92310477,28.2190703 4.54889092,22.8695807 4.54889092,16.2528916 C4.54889092,9.64982833 9.92310477,4.28807552 16.5388344,4.28807552 C23.1654844,4.28807552 28.5253652,9.64982833 28.5253652,16.2528916" id="Fill-403" fill="#FFFFFF"></path>
                </g>
            </g>
        </g>
    </g>
</svg>