<?xml version="1.0" encoding="UTF-8"?>
<svg width="96px" height="97px" viewBox="0 0 96 97" version="1.1" xmlns="http://www.w3.org/2000/svg" xmlns:xlink="http://www.w3.org/1999/xlink">
    <!-- Generator: Sketch 46.1 (44463) - http://www.bohemiancoding.com/sketch -->
    <title>04</title>
    <desc>Created with Sketch.</desc>
    <defs></defs>
    <g id="Desktop" stroke="none" stroke-width="1" fill="none" fill-rule="evenodd">
        <g id="Главная-страница" transform="translate(-860.000000, -1256.000000)">
            <g id="04" transform="translate(861.000000, 1257.000000)">
                <path d="M87,47.109 C87,69.197 69.097,87.114 46.995,87.114 C24.906,87.114 7,69.197 7,47.109 C7,25.019 24.906,7.107 46.995,7.107 C69.097,7.107 87,25.019 87,47.109" id="Fill-158" fill="#F2F2F2"></path>
                <path d="M61.046,9.655 C68.34,16.318 72.918,25.913 72.918,36.569 C72.918,56.702 56.597,73.033 36.458,73.033 C25.794,73.033 16.207,68.449 9.543,61.155 C15.227,76.312 29.852,87.114 46.995,87.114 C69.097,87.114 87,69.197 87,47.109 C87,29.96 76.214,15.338 61.046,9.655" id="Fill-159" fill="#D9D8D7"></path>
                <path d="M26.561,15.824 C26.453,15.757 26.478,15.681 26.629,15.608 C26.754,15.648 26.733,15.731 26.561,15.824 C26.509,15.817 26.64,15.799 26.561,15.824 Z M28.893,19.082 C28.916,19.075 29.288,19.03 29.152,19.178 C29.009,19.251 28.929,19.218 28.893,19.082 C28.937,19.075 28.895,19.157 28.893,19.082 Z M60.852,84.576 C60.852,84.574 60.847,84.574 60.852,84.574 L60.852,84.576 Z M60.873,84.565 C60.864,84.574 60.86,84.574 60.852,84.574 C60.855,84.554 60.86,84.543 60.873,84.551 C60.873,84.551 60.873,84.562 60.873,84.565 Z M41.859,47.404 C41.732,47.294 41.947,47.327 41.859,47.404 C41.847,47.393 41.892,47.372 41.859,47.404 Z M73.61,21.603 L73.61,21.603 L73.615,21.608 L73.61,21.603 Z M37.165,9.246 C37.191,9.236 37.213,9.236 37.236,9.232 C37.207,9.279 37.181,9.285 37.165,9.246 C37.191,9.236 37.172,9.25 37.165,9.246 Z M37.245,9.23 C37.251,9.23 37.251,9.23 37.253,9.23 C37.253,9.236 37.251,9.236 37.236,9.232 C37.236,9.232 37.245,9.232 37.245,9.23 Z M59.25,13.82 C59.248,13.82 59.248,13.809 59.248,13.809 C59.272,13.82 59.276,13.838 59.272,13.868 C59.268,13.853 59.261,13.838 59.25,13.82 C59.248,13.82 59.261,13.838 59.25,13.82 Z M65.438,12.299 C65.687,12.368 65.45,12.352 65.438,12.299 C65.438,12.299 65.446,12.339 65.438,12.299 Z M22.652,50.145 C22.564,50.073 22.71,50.191 22.652,50.145 C22.62,50.121 22.699,50.18 22.652,50.145 Z M37.369,9.163 C37.356,9.239 37.301,9.23 37.253,9.23 C37.271,9.163 37.321,9.156 37.369,9.163 Z M37.369,9.159 L37.379,9.159 C37.376,9.163 37.369,9.164 37.369,9.159 Z M36.104,9.093 C36.146,9.036 36.215,9.048 36.281,9.045 C36.236,9.108 36.177,9.117 36.104,9.093 Z M36.104,9.093 L36.096,9.097 C36.094,9.093 36.096,9.093 36.104,9.093 Z M36.292,9.045 C36.26,9.045 36.309,9.036 36.315,9.036 C36.309,9.038 36.294,9.038 36.292,9.045 Z M36.454,9.006 C36.409,9.017 36.354,9.03 36.315,9.036 C36.351,8.996 36.405,8.994 36.454,9.006 Z M38.237,12.832 C38.247,12.824 38.276,12.835 38.291,12.838 C38.237,12.869 38.152,12.869 38.237,12.832 Z M17.476,48.431 C17.445,48.835 17.354,48.041 17.476,48.431 C17.474,48.48 17.462,48.391 17.476,48.431 Z M35.567,12.162 C35.489,12.278 35.391,12.328 35.224,12.394 C35.307,12.2 35.423,12.169 35.567,12.162 Z M36.478,74.734 C36.578,74.779 36.641,74.856 36.651,74.971 C36.651,75.318 36.025,74.785 36.478,74.734 C36.545,74.727 36.379,74.742 36.478,74.734 Z M23.007,33.193 C22.996,33.335 22.928,33.404 22.803,33.397 C22.74,33.283 22.945,32.948 23.007,33.193 C23.033,33.279 22.991,33.148 23.007,33.193 Z M59.187,13.604 C59.139,13.695 59.186,13.75 59.247,13.809 C59.179,13.777 58.899,13.431 59.113,13.385 C59.212,13.422 59.239,13.493 59.187,13.604 C59.139,13.695 59.219,13.555 59.187,13.604 Z M35.177,11.957 C34.949,12.079 34.781,12.168 34.535,12.151 C34.708,11.957 34.908,11.967 35.177,11.957 Z M38.066,10.608 C38.179,10.411 38.305,10.362 38.698,10.367 C38.506,10.581 38.291,10.617 38.066,10.608 Z M78.674,24.312 C78.482,24.216 78.409,24.086 78.462,23.87 C78.62,23.988 78.688,24.104 78.674,24.312 Z M68.678,22.025 C68.369,21.983 69.271,21.696 68.943,22.116 C68.848,22.107 68.76,22.073 68.678,22.025 C68.631,22.017 68.779,22.032 68.678,22.025 Z M37.379,9.159 C37.656,8.939 37.979,8.904 38.316,8.929 C38.026,9.097 37.727,9.195 37.379,9.159 Z M37.213,18.866 C37.293,18.889 37.379,18.864 37.51,18.852 C37.115,19.339 36.656,18.664 36.756,18.64 C36.687,18.656 37.191,18.864 37.213,18.866 C37.293,18.889 37.06,18.847 37.213,18.866 Z M37.321,8.968 C37.023,9.195 36.717,9.41 36.309,9.375 C36.578,9.085 36.959,9.048 37.321,8.968 Z M38.442,8.718 C38.372,8.628 38.266,8.689 38.198,8.608 C38.377,8.4 38.635,8.472 38.858,8.408 C38.851,8.432 38.582,8.929 38.442,8.718 C38.372,8.628 38.473,8.785 38.442,8.718 Z M77.066,24.241 C76.948,24.119 76.684,24.202 76.613,23.936 C76.836,24.057 77.091,24.002 77.306,24.17 C77.229,24.231 77.147,24.315 77.066,24.241 C76.948,24.119 77.147,24.315 77.066,24.241 Z M70.357,20.902 L70.361,20.906 C70.252,20.874 69.605,20.475 69.865,20.266 C70.06,20.132 70.331,20.839 70.357,20.902 Z M37.229,17.21 C37.599,17.201 37.904,17.317 38.229,17.557 C37.794,17.643 37.51,17.478 37.229,17.21 Z M17.182,48.5 C17.176,48.67 17.095,48.734 16.924,48.677 C16.871,48.621 16.836,48.041 16.944,47.927 C17.023,48.114 17.109,48.299 17.182,48.5 C17.211,48.575 17.109,48.299 17.182,48.5 Z M25.852,31.957 C25.728,31.474 25.546,31.467 25.867,31.047 C25.989,31.493 25.989,31.763 25.852,31.957 C25.8,31.759 25.989,31.763 25.852,31.957 Z M37.875,8.501 C37.558,8.709 37.176,8.569 36.841,8.693 C37.301,8.381 37.51,8.401 37.875,8.501 C37.558,8.709 37.818,8.488 37.875,8.501 Z M34.088,41.159 C34.068,41.154 34.218,40.686 34.522,40.663 C34.88,40.882 34.265,41.18 34.088,41.159 C34.066,41.154 34.479,41.205 34.088,41.159 Z M33.923,41.192 L33.923,41.192 C33.937,41.159 33.964,41.148 34.011,41.145 C33.985,41.159 33.96,41.17 33.923,41.192 Z M32.064,35.533 C31.593,36.7 30.394,34.726 32.064,35.533 C31.991,35.7 31.783,35.395 32.064,35.533 Z M25.621,35.555 C25.736,35.563 25.794,35.627 25.815,35.734 C25.747,36.025 24.85,35.613 24.749,35.487 C25.066,35.308 25.352,35.408 25.621,35.555 Z M52.583,7.794 C52.528,7.799 52.469,7.804 52.418,7.812 C52.469,7.758 52.525,7.754 52.583,7.794 C52.528,7.799 52.562,7.786 52.583,7.794 Z M54.124,8.157 C53.61,8.008 53.074,7.986 52.583,7.794 C53.177,7.732 53.895,7.954 54.307,8.073 C54.448,8.114 54.089,8.138 54.124,8.157 C53.61,8.008 54.171,8.169 54.124,8.157 Z M38.856,8.752 C39.541,8.226 39.702,8.523 40.564,8.615 C40.295,8.857 39.625,8.917 38.856,8.752 C39.046,8.608 39.625,8.917 38.856,8.752 Z M70.507,21.063 C70.74,21.063 71.32,21.979 71.224,22.127 C70.95,22.559 70.499,21.464 70.218,21.298 C70.317,21.234 70.417,21.154 70.507,21.063 Z M51.988,11.012 C51.945,10.872 52.964,10.941 53.138,10.902 C53.404,10.857 55.434,11.064 54.719,11.39 C54.168,11.639 53.364,11.914 52.832,11.438 C52.704,11.323 51.995,11.039 51.988,11.012 C51.958,10.923 52.025,11.152 51.988,11.012 Z M60.847,15.293 C61.522,16 60.477,16.534 59.993,16.082 C59.762,15.84 59.901,15.278 59.357,15.104 C59.499,15.061 59.645,15.02 59.788,14.961 C59.42,14.092 60.67,15.104 60.847,15.293 C60.996,15.453 60.793,15.233 60.847,15.293 Z M26.976,35.525 C26.685,35.395 27.935,35.408 28.109,35.343 C27.854,34.958 28.08,34.754 27.6,34.607 C28.042,34.073 29.493,34.692 29.95,34.9 C29.912,34.963 29.826,34.906 29.781,34.983 C29.818,35.022 30.774,35.809 30.13,35.54 C29.427,35.241 29.031,35.662 28.529,35.942 C28.14,35.38 27.497,35.773 26.976,35.525 C26.915,35.5 27.097,35.576 26.976,35.525 Z M25.466,34.474 C25.078,34.512 25.721,34.167 25.664,34.044 C25.396,33.436 23.588,33.303 23.421,32.81 C23.499,32.779 23.552,32.729 23.579,32.646 C22.96,32.402 22.637,33.156 22.073,33.108 C23.241,31.131 26.131,33.386 27.294,34.31 C26.687,34.379 26.078,34.384 25.466,34.474 C25.411,34.478 25.8,34.431 25.466,34.474 Z M39.344,17.789 C39.385,17.789 39.411,17.789 39.446,17.815 C39.406,17.815 39.25,17.807 39.344,17.789 C39.385,17.789 39.318,17.793 39.344,17.789 Z M40.622,16.504 L40.63,16.502 C40.63,16.504 40.63,16.507 40.635,16.515 C40.63,16.507 40.63,16.507 40.622,16.504 Z M41.626,18.134 C41.663,18.087 41.905,17.986 41.757,18.124 C41.708,18.218 41.494,18.278 41.626,18.134 C41.64,18.112 41.599,18.165 41.626,18.134 Z M41.944,18.165 C42,18.223 41.847,18.223 41.944,18.165 C41.954,18.184 41.924,18.181 41.944,18.165 Z M40.551,16.686 C40.438,16.769 39.02,18.107 39.053,18.235 C39.085,18.358 40.527,18.267 40.772,18.41 C40.756,18.573 40.56,18.494 40.532,18.637 C40.714,18.637 41.296,18.267 41.396,18.381 C41.406,18.472 41.396,18.559 41.342,18.647 C41.982,19.271 41.92,17.911 41.954,17.834 C41.505,17.774 42.053,17.14 41.293,17.409 C41.342,17.391 40.479,17.158 40.527,17.207 C40.458,17.135 41.135,16.541 41.189,16.469 C40.789,16.365 40.739,16.541 40.551,16.686 C40.308,16.867 40.602,16.645 40.551,16.686 Z M61.863,16.098 C62.041,16.077 61.636,15.504 61.527,15.386 C61.648,15.399 61.755,15.418 61.883,15.338 C61.792,15.077 60.621,14.41 60.545,14.454 C60.102,14.733 59.55,13.495 59.491,13.329 C60.244,13.225 60.711,14.034 61.392,14.363 C61.971,14.645 64.064,15.642 64.122,16.269 C64.171,16.589 62.538,16.458 62.299,16.822 C62.115,16.365 62.708,16.369 62.692,16.226 C62.669,16.115 61.946,16.086 61.863,16.098 C61.815,16.104 62.113,16.063 61.863,16.098 Z M40.805,8.472 C40.592,8.432 40.359,8.464 40.134,8.423 C40.252,8.324 40.926,8.292 40.63,8.108 C41.556,7.541 43.485,7.423 44.542,7.554 C45.734,7.7 46.927,7.335 48.099,7.52 C48.576,7.601 48.984,7.611 49.458,7.639 C49.87,7.683 49.398,8.108 49.87,8.186 C50.147,8.214 50.7,8.841 50.954,8.703 C50.94,9.138 50.745,8.839 50.885,9.246 C50.914,9.346 51.408,9.623 51.383,9.655 C51.338,9.712 50.008,9.626 50.069,9.64 C49.968,9.626 50.093,9.842 50.179,9.813 C50.443,9.874 51.017,9.793 51.307,9.817 C50.635,10.419 49.632,10.353 48.889,10.836 C48.436,11.135 47.745,11.11 47.249,11.287 C47.249,11.805 46.862,12.422 46.519,12.954 C46.281,13.312 44.593,12.47 44.416,12.257 C44.048,11.815 43.209,10.653 44.119,10.287 C45.232,9.847 44.128,10.211 43.802,9.971 C44.068,9.591 44.359,9.721 44.778,9.788 C44.562,9.489 44.298,9.41 43.974,9.564 C43.869,9.246 44.439,8.961 43.938,8.622 C43.725,8.475 42.554,8.649 42.519,8.441 C42.446,7.933 43.943,8.204 44.209,7.786 C43.087,7.545 41.892,8.64 40.805,8.472 C40.592,8.432 40.999,8.501 40.805,8.472 Z M84.552,60.842 C84.57,60.786 84.595,60.735 84.608,60.692 C84.613,60.75 84.574,60.789 84.552,60.842 Z M83.886,62.494 C84.054,62.083 84.182,61.658 84.385,61.267 C84.257,61.686 84.073,62.087 83.886,62.494 Z M60.852,84.576 C60.914,84.689 55.823,86.126 55.298,86.24 C53.183,86.686 51.037,86.965 48.874,87.063 C44.763,87.272 40.466,86.892 36.513,85.692 C37.023,85.745 37.638,86.011 38.152,85.933 C37.661,85.62 37.052,85.728 36.616,85.349 C38.266,85.608 39.834,85.484 41.342,85.684 C41.186,85.469 39.811,85.14 39.816,84.995 C40.014,84.98 41.074,84.95 41.115,84.918 C41.616,84.529 40.322,84.576 40.438,84.292 C40.475,84.227 40.828,84.35 40.954,84.176 C41.149,83.921 40.954,83.786 41.027,83.65 C41.084,83.535 43.076,83.19 43.289,83.278 C43.055,83.417 42.782,83.254 42.884,83.648 C42.677,83.623 42.063,83.639 42.028,83.908 C42.044,83.839 42.704,84.757 42.728,84.806 C42.955,85.16 43.758,85.383 43.821,85.816 C43.956,86.54 47.74,86.464 48.308,86.403 C49.727,86.243 51.05,85.733 52.442,85.491 C53.27,85.351 54.099,85.114 54.938,85.027 C55.329,84.99 56.634,84.538 56.933,84.645 C57.125,85.314 60.146,84.436 60.852,84.576 C60.855,84.588 60.73,84.554 60.852,84.576 Z M85.958,47.424 C85.772,48.186 85.954,48.428 85.5,48.856 C85.497,48.284 85.288,47.201 85.872,46.857 C85.947,47.05 86.019,47.201 85.958,47.424 C85.882,47.734 86.019,47.201 85.958,47.424 Z M85.46,53.958 C85.447,54.606 85.357,56.353 84.935,56.846 C84.973,55.768 85.376,54.783 85.394,53.702 C85.479,53.808 85.46,53.89 85.46,53.958 C85.46,54.037 85.46,53.89 85.46,53.958 Z M84.838,51.724 C84.823,51.022 84.806,50.191 84.956,49.514 C84.989,50.705 85.043,51.905 85.008,53.099 C84.816,52.853 84.838,52.025 84.838,51.724 C84.829,51.467 84.838,51.961 84.838,51.724 Z M84.4,53.677 C84.391,53.304 84.416,53.274 84.797,53.036 C84.719,53.307 84.448,53.432 84.4,53.677 Z M84.285,57.883 C84.21,57.911 84.124,57.947 84.043,57.972 C83.9,57.972 84.308,57.766 84.332,57.753 C84.305,57.831 84.305,57.855 84.285,57.883 C84.227,57.976 84.305,57.855 84.285,57.883 Z M85.043,47.531 C85.032,47.397 85.03,47.285 85.113,47.182 C85.181,47.318 85.118,47.414 85.043,47.531 Z M85.284,46.265 C85.193,46.044 85.314,45.844 85.378,45.586 C85.471,45.858 85.32,46.055 85.284,46.265 Z M83.33,31.996 C83.162,31.59 81.037,28.471 81.285,28.292 C81.575,28.115 86.121,36.184 85.633,37.429 C84.935,35.597 84.105,33.802 83.33,31.996 C83.323,31.979 83.486,32.361 83.33,31.996 Z M86.345,39.945 L86.348,39.949 C85.57,37.065 84.989,34.211 83.789,31.422 C82.373,28.103 80.512,24.973 78.262,22.162 C76.138,19.505 73.678,17.113 70.948,15.077 C69.624,14.082 68.244,13.181 66.802,12.357 C66.117,11.968 65.416,11.589 64.701,11.238 C64.393,11.093 63.303,10.806 63.137,10.54 C63.151,10.663 63.771,10.978 63.857,11.064 C63.438,10.953 62.314,10.479 62.299,10.404 C62.324,10.356 62.415,10.404 62.402,10.316 C61.777,9.918 59.411,9.05 58.94,9.69 C59.044,9.56 60.569,11.323 60.61,11.644 C60.709,12.326 61.784,13.056 62.467,13.282 C63.421,13.601 62.704,13.17 63.105,12.954 C63.369,12.824 63.606,13.387 63.848,13.26 C63.842,13.253 63.848,13.25 63.857,13.239 C63.788,13.11 63.712,12.98 63.634,12.847 C63.567,12.847 65.368,14.704 65.589,14.296 C65.378,13.788 65.061,13.221 64.545,12.752 C64.096,12.326 63.386,12.291 62.898,11.864 C62.651,11.658 61.737,10.982 61.643,10.678 C62.843,10.714 64.239,13.269 65.446,12.281 C65.279,12.165 65.113,12.037 64.96,11.903 C65.184,11.975 66.189,12.293 65.854,12.72 C64.889,12.553 66.663,13.536 66.692,13.635 C66.516,13.622 66.398,13.483 66.234,13.471 C66.307,13.806 67.257,14.157 67.324,14.725 C66.751,14.81 67,14.374 66.623,14.847 C66.505,14.997 65.996,14.943 65.711,14.961 C65.052,15.022 64.313,13.896 63.833,13.555 C64.035,14.176 64.383,14.478 65.077,14.918 C65.416,15.108 64.604,15.196 64.615,15.481 C64.637,15.481 64.839,15.582 64.833,15.633 C64.833,15.667 64.643,15.504 64.615,15.481 C64.685,15.443 64.496,16.585 64.481,16.559 C65.026,17.198 63.758,17.017 63.734,17.036 C63.833,17.181 64.033,17.249 64.072,17.463 C63.705,17.484 63.405,17.421 63.05,17.557 C63.567,17.708 66.438,19.034 65.808,20.031 C65.614,20.364 63.671,19.956 63.31,19.944 C62.557,19.885 63.257,20.66 63.275,20.744 C63.395,21.315 63.834,21.568 63.803,22.244 C63.763,22.711 64.248,22.724 64.395,23.122 C64.53,23.465 64.456,23.496 64.813,23.551 C65.45,23.627 65.466,23.532 66.009,23.947 C66.391,24.244 66.537,23.667 66.994,23.651 C68.133,23.607 67.163,23.372 67.705,23.22 C68.379,23.032 67.519,21.979 67.558,21.771 C67.607,21.493 67.517,21.184 67.89,21.084 C68.464,20.932 67.739,20.326 67.693,20.168 C67.583,19.698 69.284,20.572 69.076,19.376 C70.06,19.683 71.067,20.569 71.969,21.08 C72.504,21.397 73.033,21.703 73.425,22.204 C73.889,22.803 72.758,22.566 72.685,22.736 C72.616,22.924 73.682,23.413 73.852,23.401 C73.875,23.294 73.721,22.681 73.705,22.574 C73.656,22.148 73.042,21.727 73.087,21.391 C73.278,21.41 73.454,21.482 73.61,21.603 C73.037,20.896 72.106,20.833 71.455,20.307 C71.064,19.986 70.566,19.725 70.184,19.398 C70.182,19.395 69.488,18.513 69.975,18.681 C70.734,18.947 71.568,19.716 72.346,20.125 C72.965,20.449 73.117,20.652 73.573,21.175 C73.756,21.391 74.704,22.489 74.918,22.532 C74.911,22.514 75.695,23.22 76.009,23.327 C75.865,23.008 75.745,22.601 75.581,22.347 C75.368,22.003 74.479,21.808 74.479,21.285 C74.685,21.302 74.704,21.094 75.136,21.111 C74.911,21.1 75.417,20.764 75.387,20.817 C74.555,20.345 73.439,18.959 73.135,18.026 C73.364,18.035 73.489,18.338 73.746,18.184 C73.656,18.026 73.638,17.85 73.656,17.678 C73.721,17.757 74.507,18.422 74.351,18.559 C74.131,18.553 73.945,18.456 73.784,18.286 C73.902,18.684 74.293,18.692 74.452,18.964 C74.47,18.852 74.398,18.77 74.49,18.647 C75.171,18.933 76.575,20.019 76.76,20.792 C76.463,20.819 75.882,20.176 75.682,20.332 C75.616,20.487 75.628,20.649 75.713,20.798 C75.623,20.803 75.542,20.819 75.461,20.86 C75.575,20.952 75.635,21.061 75.649,21.197 C75.537,21.24 75.43,21.272 75.311,21.302 C75.406,21.69 77.437,23.621 77.582,23.426 C77.621,23.354 77.494,23.161 77.524,23.135 C77.632,23.008 77.952,23.57 78.123,23.459 C78.255,23.369 77.984,23.192 78.135,23.124 C78.441,22.966 79.654,25.345 79.806,25.627 C80.393,26.734 80.006,26.059 79.56,26.211 C79.494,26.329 79.446,26.443 79.436,26.57 C78.728,26.408 77.952,25.997 77.378,25.594 C76.456,24.928 77.67,27.39 77.137,27.084 C76.826,26.905 76.646,26.643 76.258,26.615 C75.702,26.552 75.542,25.957 75.025,25.786 C74.614,25.646 72.958,25.495 73.17,24.739 C73.344,24.084 72.514,23.555 72.235,23.305 C72.096,23.176 70.258,23.419 69.957,23.5 C69.458,23.662 68.653,23.837 68.371,24.306 C67.887,25.184 66.762,24.027 66.313,24.206 C66.076,24.305 66.307,25.027 66.178,25.253 C66.002,25.606 65.552,25.627 65.438,26.038 C65.239,26.784 65.808,27.401 65.552,28.091 C65.341,28.642 64.285,28.872 64.27,29.32 C64.262,29.566 64.214,29.833 63.99,29.962 C63.509,30.242 63.998,30.873 63.701,31.188 C62.074,32.848 64.225,34.468 63.857,36.28 C63.645,37.312 63.527,37.524 63.972,38.414 C64.072,38.639 63.994,40.239 64.806,39.587 C64.908,40.528 66.105,40.714 66.321,41.597 C66.577,42.647 67.607,43.108 68.41,43.743 C68.735,43.986 69.004,44.32 69.376,44.506 C70.038,44.839 70.479,44.324 71.104,44.152 C71.676,43.98 72.27,44.045 72.806,44.301 C73.112,44.445 75.406,42.813 76.026,43.121 C76.485,43.352 76.507,43.908 76.719,44.31 C77.02,44.863 77.65,44.125 78.072,44.324 C78.829,44.657 79.051,47.408 78.414,47.919 C77.933,48.266 79.023,49.765 79.169,50.071 C79.603,50.921 79.994,52.404 79.857,53.352 C79.751,54.113 79.956,55.33 79.524,55.995 C79.085,56.674 78.836,57.389 78.486,58.151 C77.582,60.118 78.447,62.333 77.67,64.373 C77.195,65.414 77.278,66.53 77.027,67.614 C76.86,68.318 76.009,69.334 76.338,70.063 C76.846,69.604 77.61,69.662 78.188,69.373 C79.372,68.789 79.934,67.429 80.794,66.518 C81.256,66.032 81.541,65.426 81.813,64.831 C82.067,64.266 82.596,63.908 82.839,63.352 C83.441,61.954 83.989,60.568 84.595,59.166 C85.863,56.148 86.073,53.253 86.515,50.025 C86.979,46.594 86.989,43.352 86.345,39.945 Z M22.506,15.535 C22.506,15.541 22.502,15.541 22.502,15.541 L22.506,15.535 Z M36.096,9.097 C36.096,9.097 36.094,9.097 36.092,9.097 C36.094,9.097 36.094,9.093 36.094,9.093 L36.096,9.097 Z M32.511,75.675 C32.499,75.685 32.479,75.687 32.464,75.691 C32.51,75.659 32.519,75.652 32.511,75.675 Z M35.567,79.786 C35.417,79.757 35.43,79.703 35.614,79.612 C35.739,79.663 35.729,79.727 35.567,79.786 C35.506,79.786 35.608,79.772 35.567,79.786 Z M34.131,79.161 C33.985,79.072 33.985,79.022 34.119,78.997 C34.283,79.056 34.286,79.121 34.131,79.161 C34.068,79.151 34.177,79.169 34.131,79.161 Z M33.039,68.021 C32.83,68.097 33.262,67.948 33.039,68.021 C32.985,68.036 33.066,68.01 33.039,68.021 Z M32.906,57.692 C32.791,57.573 32.98,57.753 32.906,57.692 C32.896,57.68 32.93,57.709 32.906,57.692 Z M32.084,74.271 C31.765,74.221 32.259,74.02 32.084,74.271 C32.007,74.263 32.088,74.263 32.084,74.271 Z M30.235,41.124 C30.037,41.087 30.46,41.145 30.235,41.124 C30.218,41.124 30.26,41.13 30.235,41.124 Z M18.921,37.387 C18.822,37.42 19.213,37.316 18.921,37.387 C18.906,37.393 18.975,37.38 18.921,37.387 Z M14.289,34.058 C13.916,34.045 14.575,34.045 14.289,34.058 C14.242,34.056 14.325,34.056 14.289,34.058 Z M25.771,16.603 C25.847,16.791 25.792,16.892 25.571,16.923 C25.656,16.791 25.717,16.689 25.771,16.603 Z M26.898,18.104 C27.71,17.841 28.004,17.387 28.492,18.002 C28.676,18.235 28.641,18.833 28.209,18.692 C28.326,18.728 26.892,18.591 27.156,18.435 C26.874,18.62 26.314,18.741 25.975,18.591 C26.284,18.417 26.564,18.218 26.898,18.104 C27.103,18.043 26.564,18.218 26.898,18.104 Z M26.26,16.614 C26.392,16.51 26.693,16.022 26.548,15.824 C26.629,15.931 25.98,15.757 26.273,15.644 C26.4,15.608 27.131,15.203 27.253,15.327 C27.464,15.541 26.333,16.734 26.104,16.824 C26.126,16.704 26.195,16.657 26.26,16.614 C26.444,16.473 26.195,16.657 26.26,16.614 Z M26.911,14.344 C26.854,14.454 26.803,14.506 26.67,14.504 C26.717,14.389 26.803,14.378 26.911,14.344 Z M27.174,13.385 C27.24,13.385 28.181,12.787 28.209,13.03 C28.218,13.106 27.063,13.398 27.174,13.385 Z M28.443,17.024 C28.44,17.054 28.211,17.492 28.071,17.322 C27.961,17.198 28.403,16.819 28.443,17.024 C28.428,17.135 28.432,16.967 28.443,17.024 Z M28.319,12.299 C28.396,12.26 28.979,11.899 29.053,11.988 C29.235,12.222 28.117,12.504 28.058,12.515 C28.128,12.368 28.23,12.348 28.319,12.299 C28.523,12.182 28.23,12.348 28.319,12.299 Z M29.323,19.026 C29.854,19.275 29.555,20.096 29.101,19.452 C29.083,19.834 28.428,20.471 28.071,20.554 C28.208,20.405 28.254,20.24 28.209,20.061 C28.094,19.97 27.876,20.225 27.755,20.221 C27.804,20.445 28.702,18.683 27.947,19.198 C27.674,19.403 25.865,21.325 25.758,21.226 C25.589,21.045 26.561,19.636 26.631,19.58 C27.253,19.073 28.547,18.664 29.323,19.026 Z M29.754,19.774 C29.724,19.774 29.609,19.736 29.754,19.774 C29.763,19.774 29.709,19.751 29.754,19.774 Z M30.178,18.906 C30.114,18.966 30.05,18.964 29.996,18.903 C30.083,18.864 30.166,18.84 30.178,18.906 C30.214,18.964 30.166,18.84 30.178,18.906 Z M30.101,11.08 C30.484,10.83 30.9,10.648 31.409,10.531 C31.037,10.836 30.542,10.964 30.088,11.089 L30.101,11.08 Z M30.335,20.085 C31.786,20.225 29.475,20.663 29.229,20.405 C29.559,20.12 29.94,20.031 30.335,20.085 C30.456,20.096 29.94,20.031 30.335,20.085 Z M28.937,20.952 C28.946,20.946 27.191,21.645 27.328,21.218 C27.279,21.347 27.924,20.718 27.791,20.772 C27.935,20.716 29.108,20.649 29.455,20.652 C29.276,20.829 29.104,20.885 28.937,20.952 C28.547,21.098 29.104,20.885 28.937,20.952 Z M34.769,10.997 C34.897,11.062 34.885,11.115 34.734,11.173 C34.62,11.115 34.642,11.062 34.769,10.997 C34.814,10.997 34.708,11.001 34.769,10.997 Z M34.97,11.23 C35.063,11.14 35.177,11.1 35.302,11.11 C35.406,11.266 34.619,11.355 34.97,11.23 C35.014,11.141 34.932,11.243 34.97,11.23 Z M39.477,10.857 C39.36,10.997 39.18,10.911 39.028,10.982 C39.188,10.674 39.221,10.669 39.477,10.857 Z M38.675,11.393 C38.604,11.396 38.527,11.396 38.416,11.396 C38.771,11.1 38.713,11.393 38.675,11.393 C38.604,11.396 38.726,11.393 38.675,11.393 Z M33.705,15.32 C33.501,15.549 33.501,15.549 33.22,15.498 C33.365,15.397 33.566,15.443 33.705,15.32 Z M34.109,16.547 C32.998,17.6 33.864,16.559 33.536,16.892 C33.548,16.905 33.536,16.922 33.521,16.923 C33.436,16.819 34.088,16.555 34.109,16.547 C33.971,16.686 33.919,16.589 34.109,16.547 Z M33.771,17.873 C33.447,17.852 34.109,17.894 33.771,17.873 C33.727,17.873 33.818,17.882 33.771,17.873 Z M34.917,14.458 C34.991,14.367 35.055,14.38 35.096,14.499 C35.014,14.592 34.953,14.581 34.917,14.458 C34.926,14.414 34.908,14.51 34.917,14.458 Z M36.066,16.651 C36.251,16.692 35.806,16.614 36.066,16.651 C36.074,16.653 36.019,16.645 36.066,16.651 Z M38.161,15.174 C38.322,15.149 38.45,15.191 38.537,15.308 C38.537,15.368 37.687,15.414 37.558,15.627 C37.666,15.25 37.979,15.318 38.161,15.174 C38.245,15.285 37.979,15.318 38.161,15.174 Z M40.242,15.347 C40.021,15.541 39.787,15.585 39.537,15.653 C39.712,15.386 39.978,15.436 40.242,15.347 Z M37.638,80.546 C37.797,80.585 38.229,80.436 38.354,80.396 C38.058,80.161 37.414,80.138 37.041,79.904 C37.067,79.917 35.834,79.169 36.096,79.786 C36.164,79.933 36.396,79.795 36.496,79.877 C36.351,80.096 36.285,80.029 36.452,80.132 C36.452,80.128 35.083,79.379 36.458,79.335 C35.506,78.48 36.519,78.746 36.215,78.205 C36.016,77.838 37.023,77.481 36.478,77.165 C36.217,77.014 35.933,77.04 35.665,76.857 C35.291,76.585 35.64,76.104 35.999,76.148 C36.032,76.148 36.215,75.287 36.281,75.148 C36.178,75.11 35.475,74.236 35.64,74.051 C35.854,73.826 36.771,74.62 36.998,74.038 C37.085,73.822 36.678,73.257 36.711,73.029 C37.128,72.982 39.859,73.09 39.392,71.832 C39.23,71.398 38.08,70.753 38.207,70.389 C38.604,70.454 39.263,71.035 39.688,70.799 C40.044,70.62 40.322,71.006 40.691,70.597 C40.754,70.516 41.359,69.873 41.186,69.747 C40.999,69.743 40.899,69.853 40.885,70.063 C40.667,69.771 41.043,69.571 41.239,69.353 C41.282,69.423 41.331,69.482 41.37,69.546 C41.603,69.197 42.865,67.555 42.904,67.521 C43.549,66.765 43.021,65.755 43.663,65.157 C44.242,64.613 44.88,64.249 45.611,63.958 C45.835,63.874 46.639,63.45 46.801,63.495 C48.142,63.908 47.98,62.309 48.833,61.585 C49.697,60.861 49.059,57.152 49.765,56.874 C50.147,56.726 51.285,55.33 51.877,54.682 C52.448,54.071 52.521,53.271 52.299,52.49 C51.958,51.295 51.621,51.978 50.758,51.457 C50.063,51.04 49.532,50.211 48.673,50.102 C48.165,50.025 47.641,50.178 47.141,50.03 C46.93,49.971 46.353,49.614 46.136,49.908 C46.177,49.865 45.679,50.102 45.709,50.115 C45.654,50.073 45.702,49.454 45.539,49.301 C45.274,49.048 44.381,48.803 44.054,48.718 C43.31,48.532 43.131,49.411 42.938,48.36 C42.325,48.186 41.713,47.473 41.818,47.291 C41.875,47.222 40.861,45.082 40.719,45.278 C40.709,44.56 38.486,43.669 37.919,44.017 C37.414,44.381 36.48,43.68 36.166,43.346 C35.812,42.961 35.821,42.562 35.231,42.314 C34.978,42.204 34.543,42.266 34.642,41.831 C34.745,41.365 33.548,41.279 33.436,40.833 C33.604,40.862 33.747,40.773 33.91,40.734 C33.439,40.894 32.874,40.56 32.414,40.928 C31.747,41.487 31.349,40.677 30.618,40.819 C29.69,40.995 30.316,40.652 29.73,40.295 C29.971,40.445 28.645,39.692 28.955,39.716 C28.677,39.688 28.996,40.175 28.69,40.284 C28.208,40.458 27.788,40.571 28.107,41.154 C28.634,42.209 26.99,41.715 27.764,40.995 C27.9,40.868 27.939,39.481 28.094,39.538 C27.9,39.466 26.402,40.442 26.23,40.645 C25.747,39.876 24.933,42.562 24.661,42.582 C24.523,41.917 23.9,41.648 23.353,41.456 C22.888,41.277 22.416,42.384 21.811,41.775 C20.729,40.686 21.2,38.925 21.752,37.67 C21.982,37.093 19.753,36.917 19.483,37.146 C18.935,37.59 19.567,36.233 19.565,36.271 C19.625,35.727 19.748,35.36 19.992,35.368 C20.138,35.045 20.964,33.563 20.879,33.376 C20.545,32.6 19.14,33.987 19.006,34.33 C18.863,34.666 18.594,34.859 18.465,35.166 C18.334,35.472 18.069,35.093 17.849,35.217 C17.244,35.557 16.375,35.38 16.508,34.502 C16.646,33.443 16.244,31.344 17.43,30.615 C17.795,30.397 17.853,29.344 18.272,28.966 C18.327,28.925 19.53,28.225 19.41,28.084 C19.589,28.267 20.534,27.895 20.651,28.134 C20.746,28.342 21.304,28.55 21.495,28.435 C21.489,28.457 21.596,27.97 21.596,27.963 C21.58,27.958 21.207,27.914 21.225,27.793 C21.265,27.629 22.397,27.733 22.432,27.737 C22.971,27.782 23.364,28.225 23.762,27.954 C24.378,27.535 24.001,30.286 24.244,30.538 C24.381,30.686 24.284,31.015 24.541,30.992 C24.893,30.957 25.008,27.418 25.914,26.686 C26.573,26.157 27.298,25.667 28.042,25.273 C28.273,25.158 28.88,24.864 29.007,24.63 C28.983,24.514 28.869,24.375 28.742,24.499 C28.706,24.284 29.072,24.42 29.14,24.19 C29.207,23.96 28.948,23.889 28.98,23.805 C28.968,23.832 29.207,23.343 29.13,23.415 C29.14,23.426 29.14,23.45 29.144,23.46 C29.508,23.514 29.063,23.122 29.043,23.056 C29.522,23.306 29.32,22.536 29.793,22.489 C29.458,22.631 29.52,23.008 29.565,23.233 C29.662,23.74 30.104,22.543 30.052,22.587 C30.503,22.406 31.199,22.027 31.685,21.692 C31.57,21.638 31.452,21.729 31.318,21.629 C31.81,21.453 32.36,21.517 32.83,21.272 C32.81,20.768 33.108,20.256 33.667,20.158 C34.522,20.019 35.522,19.502 36.379,19.21 C36.251,19.505 36.449,19.275 36.678,19.387 C36.4,18.664 34.885,20.725 35.606,20.303 C36.212,19.956 38.271,19.636 38.543,19.044 C38.537,19.006 38.41,18.62 38.415,18.62 C37.906,18.62 37.865,19.242 37.245,19.24 C36.109,19.226 36.793,18.53 36.558,18.218 C36.354,18.263 36.184,18.209 36.048,18.057 C36.164,18.033 37.56,17.704 36.822,17.538 C35.625,17.281 34.827,18.62 33.844,18.58 C34.578,18.134 35.58,17.181 36.473,17.06 C37.423,16.928 38.743,17.391 39.581,16.804 C40.322,16.292 40.835,16.664 41.258,15.824 C41.386,15.601 40.709,15.312 40.538,15.276 C40.614,15.186 40.764,15.276 40.815,15.136 C39.695,14.629 39.461,14.135 39.325,12.838 C38.756,13.258 36.841,14.146 37.865,12.698 C37.499,12.54 36.333,11.567 35.889,12.241 C35.684,12.54 35.36,13.041 35.014,13.195 C34.255,13.545 34.934,13.476 34.678,13.989 C34.244,14.827 33.208,14.713 32.715,15.447 C32.405,15.907 32.313,16.23 31.827,16.45 C31.407,16.632 31.247,16.129 31.452,15.742 C31.601,15.907 31.736,15.931 31.857,15.804 C31.893,15.627 31.635,15.721 31.555,15.644 C31.701,15.381 31.887,15.149 32.1,14.927 C32.027,14.891 30.953,14.721 30.989,14.437 C31.059,13.853 30.322,14.171 30.188,13.998 C30.767,13.273 30.767,12.932 31.893,12.368 C32.275,12.175 34.44,11.077 34.839,11.353 C34.788,11.594 34.522,11.547 34.379,11.675 C34.688,11.748 35.593,11.851 35.897,11.639 C35.834,11.578 35.47,10.978 35.655,10.836 C35.629,10.861 36.274,10.848 36.324,10.832 C36.672,10.743 37.052,10.704 37.253,10.356 C37.423,10.038 38.564,9.64 38.833,9.793 C40.325,10.642 36.812,11.537 36.775,11.438 C36.847,11.687 37.794,11.27 38.032,11.914 C38.091,12.079 39.17,12.426 39.279,12.278 C39.338,12.197 38.967,11.809 38.954,11.71 C40.086,12.26 40.021,11.975 39.834,11.219 C39.658,10.496 40.495,11.266 40.546,11.284 C40.737,11.386 41.496,10.947 41.612,10.791 C41.336,10.571 40.858,10.574 40.622,10.316 C40.395,10.099 41.21,10.038 40.926,9.806 C40.584,9.524 40.037,9.589 40.233,9.048 C40.031,8.987 39.843,9.006 39.671,9.115 C39.723,9.219 39.834,9.138 39.876,9.2 C39.688,9.307 39.475,9.333 39.263,9.327 C39.327,9.23 39.527,9.23 39.532,9.045 C38.941,8.968 38.635,9.327 38.126,9.482 C38.271,9.268 38.515,9.205 38.686,9.05 C38.135,9.117 37.595,9.329 37.161,9.688 C37.223,9.749 37.286,9.817 37.333,9.901 C36.902,10.27 36.333,10.39 35.834,10.615 C35.92,10.283 36.281,10.367 36.4,10.113 C36.215,10.114 36.037,10.152 35.876,10.236 C36.09,10.211 36.717,9.575 36.859,9.417 C35.951,9.313 35.567,10.495 34.708,10.32 C34.887,10.114 35.251,10.226 35.374,9.901 C35.055,9.936 33.851,10.747 33.653,10.32 C33.644,10.295 35.857,9.417 36.092,9.097 C35.943,9.084 35.771,9.236 35.635,9.061 C35.743,8.938 35.921,8.929 36.048,8.796 C35.322,8.788 33.161,9.668 33.328,10.169 C33.05,10.4 32.745,10.457 32.405,10.316 C32.539,10.11 33.011,10.105 32.629,9.804 C31.93,10.063 31.255,10.347 30.578,10.645 C29.016,11.328 27.488,12.144 26.04,13.041 C23.649,14.517 21.67,16.269 19.697,18.253 C18.646,19.316 14.647,23.986 14.662,24.954 C14.674,25.674 14.251,26.315 13.984,26.959 C13.763,27.49 13.742,28.229 13.475,28.714 C12.896,29.749 13.162,30.952 12.896,32.14 C13.226,31.89 13.909,26.449 14.495,26.65 C14.612,26.686 14.131,28.916 14.006,29.183 C13.512,30.327 14.161,31.728 13.838,32.917 C13.803,33.035 13.64,33.641 13.636,33.762 C13.09,34.186 13.779,34.813 13.774,35.275 C13.774,35.55 15.176,36.785 15.452,36.945 C16.038,37.296 16.159,36.669 16.692,36.785 C17.178,36.891 17.316,37.766 17.574,38.133 C17.917,38.654 19.229,38.591 19.457,38.837 C19.605,39.019 19.481,40.022 20.081,40.162 C20.077,40.1 20.064,39.74 20.145,39.692 C20.325,39.578 20.711,40.25 20.584,40.374 C20.396,40.413 20.225,40.34 20.083,40.162 C20.083,40.257 19.983,41.568 20.367,41.311 C20.373,41.233 20.396,41.148 20.401,41.067 C20.905,41.286 20.867,42.02 21.223,42.128 C21.709,42.25 22.075,42.874 22.447,43.046 C22.774,43.212 22.684,41.894 23.308,41.835 C23.814,41.78 24.096,43.096 24.273,43.42 C24.537,43.884 23.918,44.989 24.263,45.354 C24.609,45.716 23.396,46.59 23.336,46.968 C23.292,47.253 22.678,47.521 22.699,47.634 C22.746,47.936 22.562,48.353 22.456,48.65 C22.144,49.465 22.299,49.544 22.829,49.915 C22.843,49.927 21.841,51.921 22.419,52.435 C23.331,53.182 24.531,55.02 24.822,56.181 C25.414,57.785 26.327,58.757 27.846,59.551 C29.083,60.197 29.955,61.308 29.955,62.793 C30.004,63.667 29.872,64.768 30.242,65.584 C30.503,66.157 30.01,67.1 30.383,67.618 C30.618,67.948 30.309,68.124 30.449,68.427 C30.593,68.749 30.927,69.288 30.923,69.658 C30.911,70.292 30.92,71.035 30.963,71.655 C30.974,71.869 30.774,72.226 30.885,72.362 C31.028,72.531 31.871,74.613 31.871,75.219 C31.867,75.367 32.517,75.173 31.93,74.583 C32.629,74.199 32.489,75.836 32.539,75.847 C31.908,75.642 32.316,75.809 32.362,76.611 C32.396,77.092 32.242,76.859 32.629,76.955 C33.242,77.092 32.629,77.499 32.863,77.838 C33.328,78.503 34.039,79.127 34.529,79.643 C35.324,80.487 36.69,80.351 37.638,80.546 C37.771,80.579 37.457,80.513 37.638,80.546 L37.638,80.546 Z" id="Fill-160" fill="#474F59"></path>
                <path d="M84.385,61.267 C84.182,61.658 84.054,62.083 83.886,62.494 C84.073,62.087 84.257,61.686 84.385,61.267 Z M84.608,60.692 C84.595,60.735 84.57,60.786 84.552,60.842 C84.574,60.789 84.613,60.75 84.608,60.692 Z M60.852,84.574 C60.86,84.574 60.864,84.574 60.873,84.565 C60.873,84.562 60.873,84.551 60.873,84.551 C60.86,84.543 60.855,84.554 60.852,84.574 Z M60.805,84.572 C60.814,84.576 60.842,84.576 60.852,84.576 C60.795,84.565 60.795,84.567 60.805,84.572 Z M60.805,84.572 C60.042,84.465 57.122,85.304 56.933,84.645 C56.634,84.538 55.329,84.99 54.938,85.027 C54.099,85.114 53.27,85.351 52.442,85.491 C51.05,85.733 49.727,86.243 48.308,86.403 C47.74,86.464 43.956,86.54 43.821,85.816 C43.758,85.383 42.955,85.16 42.728,84.806 C42.704,84.757 42.044,83.839 42.028,83.908 C42.063,83.639 42.677,83.623 42.884,83.648 C42.782,83.254 43.055,83.417 43.289,83.278 C43.076,83.19 41.084,83.535 41.027,83.65 C40.954,83.786 41.149,83.921 40.954,84.176 C40.828,84.35 40.475,84.227 40.438,84.292 C40.322,84.576 41.616,84.529 41.115,84.918 C41.074,84.95 40.014,84.98 39.816,84.995 C39.811,85.14 41.186,85.469 41.342,85.684 C39.834,85.484 38.266,85.608 36.616,85.349 C37.052,85.728 37.661,85.62 38.152,85.933 C37.638,86.011 37.023,85.745 36.513,85.692 C40.466,86.892 44.763,87.272 48.874,87.063 C51.037,86.965 53.183,86.686 55.298,86.24 C55.823,86.126 60.914,84.689 60.852,84.576 C60.855,84.581 60.814,84.576 60.805,84.572 Z M36.651,74.971 C36.641,74.856 36.578,74.779 36.478,74.734 C36.025,74.785 36.651,75.318 36.651,74.971 Z M85.958,47.424 C86.019,47.201 85.947,47.05 85.872,46.857 C85.288,47.201 85.497,48.284 85.5,48.856 C85.947,48.434 85.778,48.192 85.949,47.45 C85.968,47.393 85.984,47.306 85.958,47.424 Z M85.394,53.702 C85.376,54.783 84.973,55.768 84.935,56.846 C85.357,56.353 85.447,54.606 85.46,53.958 C85.46,54.009 85.46,53.969 85.46,53.952 C85.46,53.886 85.479,53.803 85.394,53.702 Z M84.838,51.724 C84.838,52.025 84.816,52.853 85.008,53.099 C85.043,51.905 84.989,50.705 84.956,49.514 C84.806,50.191 84.823,51.022 84.838,51.724 C84.829,51.467 84.838,51.961 84.838,51.724 Z M84.797,53.036 C84.416,53.274 84.391,53.304 84.4,53.677 C84.448,53.432 84.719,53.307 84.797,53.036 Z M84.285,57.883 C84.305,57.855 84.305,57.831 84.332,57.753 C84.308,57.766 83.9,57.972 84.043,57.972 C84.124,57.947 84.21,57.911 84.285,57.883 C84.227,57.976 84.305,57.855 84.285,57.883 Z M85.043,47.531 C85.118,47.414 85.181,47.318 85.113,47.182 C85.03,47.285 85.032,47.397 85.043,47.531 Z M85.284,46.265 C85.32,46.055 85.471,45.858 85.378,45.586 C85.314,45.844 85.193,46.044 85.284,46.265 Z M86.515,50.025 C86.073,53.253 85.863,56.148 84.595,59.166 C83.989,60.568 83.441,61.954 82.839,63.352 C82.596,63.908 82.067,64.266 81.813,64.831 C81.541,65.426 81.256,66.032 80.794,66.518 C79.934,67.429 79.372,68.789 78.188,69.373 C77.61,69.662 76.846,69.604 76.338,70.063 C76.009,69.334 76.86,68.318 77.027,67.614 C77.278,66.53 77.195,65.414 77.67,64.373 C78.447,62.333 77.582,60.118 78.486,58.151 C78.836,57.389 79.085,56.674 79.524,55.995 C79.956,55.33 79.751,54.113 79.857,53.352 C79.994,52.404 79.603,50.921 79.169,50.071 C79.023,49.765 77.933,48.266 78.414,47.919 C79.051,47.408 78.829,44.657 78.072,44.324 C77.65,44.125 77.02,44.863 76.719,44.31 C76.507,43.908 76.485,43.352 76.026,43.121 C75.406,42.813 73.112,44.445 72.806,44.301 C72.591,44.197 72.368,44.127 72.134,44.096 C72.654,41.662 72.918,39.151 72.918,36.569 C72.918,31.925 72.042,27.499 70.463,23.417 C71.109,23.313 72.128,23.208 72.235,23.305 C72.514,23.555 73.344,24.084 73.17,24.739 C72.958,25.495 74.614,25.646 75.025,25.786 C75.542,25.957 75.702,26.552 76.258,26.615 C76.646,26.643 76.826,26.905 77.137,27.084 C77.67,27.39 76.456,24.928 77.378,25.594 C77.952,25.997 78.728,26.408 79.436,26.57 C79.446,26.443 79.494,26.329 79.56,26.211 C80.006,26.059 80.393,26.734 79.806,25.627 C79.654,25.345 78.441,22.966 78.135,23.124 C77.984,23.192 78.255,23.369 78.123,23.459 C77.952,23.57 77.632,23.008 77.524,23.135 C77.494,23.161 77.621,23.354 77.582,23.426 C77.437,23.621 75.406,21.69 75.311,21.302 C75.43,21.272 75.537,21.24 75.649,21.197 C75.635,21.061 75.575,20.952 75.461,20.86 C75.542,20.819 75.623,20.803 75.713,20.798 C75.628,20.649 75.616,20.487 75.682,20.332 C75.882,20.176 76.463,20.819 76.76,20.792 C76.575,20.019 75.171,18.933 74.49,18.647 C74.398,18.77 74.47,18.852 74.452,18.964 C74.293,18.692 73.902,18.684 73.784,18.286 C73.945,18.456 74.131,18.553 74.351,18.559 C74.507,18.422 73.721,17.757 73.656,17.678 C73.638,17.85 73.656,18.026 73.746,18.184 C73.489,18.338 73.364,18.035 73.135,18.026 C73.439,18.959 74.555,20.345 75.387,20.817 C75.417,20.764 74.911,21.1 75.136,21.111 C74.704,21.094 74.685,21.302 74.479,21.285 C74.479,21.808 75.368,22.003 75.581,22.347 C75.745,22.601 75.865,23.008 76.009,23.327 C75.695,23.22 74.911,22.514 74.918,22.532 C74.704,22.489 73.756,21.391 73.573,21.175 C73.117,20.652 72.965,20.449 72.346,20.125 C71.568,19.716 70.734,18.947 69.975,18.681 C69.488,18.513 70.182,19.395 70.184,19.398 C70.566,19.725 71.064,19.986 71.455,20.307 C72.106,20.833 73.037,20.896 73.61,21.603 C73.454,21.482 73.278,21.41 73.087,21.391 C73.042,21.727 73.656,22.148 73.705,22.574 C73.721,22.681 73.875,23.294 73.852,23.401 C73.682,23.413 72.616,22.924 72.685,22.736 C72.758,22.566 73.889,22.803 73.425,22.204 C73.033,21.703 72.504,21.397 71.969,21.08 C71.067,20.569 70.06,19.683 69.076,19.376 C69.134,19.694 69.053,19.86 68.909,19.952 C68.015,18.203 66.979,16.532 65.82,14.959 C66.105,14.948 66.521,14.969 66.623,14.847 C67,14.374 66.751,14.81 67.324,14.725 C67.257,14.157 66.307,13.806 66.234,13.471 C66.398,13.483 66.516,13.622 66.692,13.635 C66.663,13.536 64.889,12.553 65.854,12.72 C66.189,12.293 65.184,11.975 64.96,11.903 C65.113,12.037 65.279,12.165 65.446,12.281 C64.488,13.058 63.421,11.639 62.427,10.979 C62.021,10.571 61.605,10.169 61.178,9.786 C61.707,9.959 62.173,10.168 62.402,10.316 C62.415,10.404 62.324,10.356 62.299,10.404 C62.314,10.479 63.438,10.953 63.857,11.064 C63.771,10.978 63.151,10.663 63.137,10.54 C63.303,10.806 64.393,11.093 64.701,11.238 C65.416,11.589 66.117,11.968 66.802,12.357 C68.244,13.181 69.624,14.082 70.948,15.077 C73.678,17.113 76.138,19.505 78.262,22.162 C80.512,24.973 82.373,28.103 83.789,31.422 C84.315,32.656 84.729,33.912 85.088,35.176 C83.945,32.37 81.49,28.162 81.285,28.292 C81.037,28.471 83.162,31.59 83.33,31.996 C83.323,31.979 83.486,32.361 83.33,31.996 C84.105,33.802 84.935,35.597 85.633,37.429 C85.65,37.393 85.656,37.351 85.661,37.291 C85.889,38.17 86.11,39.054 86.348,39.949 L86.345,39.945 C86.989,43.352 86.979,46.594 86.515,50.025 Z M77.306,24.17 C77.091,24.002 76.836,24.057 76.613,23.936 C76.684,24.202 76.948,24.119 77.066,24.241 C76.979,24.157 77.045,24.216 77.078,24.241 C77.151,24.312 77.23,24.231 77.306,24.17 Z M73.61,21.603 L73.61,21.603 L73.615,21.608 L73.61,21.603 Z M78.462,23.87 C78.409,24.086 78.482,24.216 78.674,24.312 C78.688,24.104 78.62,23.988 78.462,23.87 Z M85.949,47.45 C85.954,47.444 85.954,47.435 85.958,47.424 C85.921,47.581 85.938,47.524 85.949,47.45 Z M85.088,35.176 C85.292,35.884 85.479,36.583 85.661,37.291 C85.711,36.896 85.471,36.111 85.088,35.176 Z M85.46,53.958 C85.46,53.957 85.46,53.954 85.46,53.952 C85.46,53.939 85.46,53.93 85.46,53.958 Z M77.078,24.241 L77.066,24.241 C77.094,24.269 77.091,24.252 77.078,24.241 Z M63.628,12.27 C64.218,12.923 64.783,13.609 65.326,14.313 C65.45,14.36 65.552,14.365 65.589,14.296 C65.378,13.788 65.061,13.221 64.545,12.752 C64.294,12.52 63.959,12.402 63.628,12.27 Z M37.646,80.546 C37.646,80.546 37.644,80.546 37.638,80.546 C37.687,80.557 37.667,80.552 37.646,80.546 Z M32.464,75.691 C32.479,75.687 32.499,75.685 32.511,75.675 C32.519,75.652 32.51,75.659 32.464,75.691 Z M35.553,79.783 C35.557,79.783 35.558,79.786 35.567,79.786 C35.593,79.776 35.567,79.776 35.553,79.783 Z M35.614,79.612 C35.442,79.701 35.422,79.751 35.553,79.783 C35.547,79.783 35.543,79.786 35.567,79.786 C35.729,79.727 35.739,79.663 35.614,79.612 Z M34.119,78.997 C33.985,79.022 33.985,79.072 34.131,79.161 C34.068,79.151 34.177,79.169 34.131,79.161 C34.286,79.121 34.283,79.056 34.119,78.997 Z M32.064,74.265 C32.049,74.265 32.042,74.265 32.084,74.271 C32.255,74.038 31.8,74.21 32.064,74.265 Z M37.638,80.546 C36.69,80.351 35.324,80.487 34.529,79.643 C34.039,79.127 33.328,78.503 32.863,77.838 C32.629,77.499 33.242,77.092 32.629,76.955 C32.242,76.859 32.396,77.092 32.362,76.611 C32.316,75.809 31.908,75.642 32.539,75.847 C32.489,75.836 32.629,74.199 31.93,74.583 C32.517,75.173 31.867,75.367 31.871,75.219 C31.871,74.717 31.31,73.238 31.021,72.622 C32.795,72.891 34.61,73.033 36.458,73.033 C36.576,73.033 36.687,73.026 36.809,73.023 C36.77,73.026 36.739,73.029 36.711,73.029 C36.678,73.257 37.085,73.822 36.998,74.038 C36.771,74.62 35.854,73.826 35.64,74.051 C35.475,74.236 36.178,75.11 36.281,75.148 C36.215,75.287 36.032,76.148 35.999,76.148 C35.64,76.104 35.291,76.585 35.665,76.857 C35.933,77.04 36.217,77.014 36.478,77.165 C37.023,77.481 36.016,77.838 36.215,78.205 C36.519,78.746 35.506,78.48 36.458,79.335 C35.083,79.379 36.452,80.128 36.452,80.132 C36.285,80.029 36.351,80.096 36.496,79.877 C36.396,79.795 36.164,79.933 36.096,79.786 C35.834,79.169 37.067,79.917 37.041,79.904 C37.414,80.138 38.058,80.161 38.354,80.396 C38.229,80.436 37.809,80.583 37.646,80.546 C37.597,80.538 37.534,80.527 37.638,80.546 Z M69.865,20.266 C69.605,20.475 70.252,20.874 70.361,20.906 L70.357,20.902 C70.331,20.839 70.06,20.132 69.865,20.266 Z M70.218,21.298 C70.317,21.234 70.417,21.154 70.507,21.063 C70.74,21.063 71.32,21.979 71.224,22.127 C70.95,22.559 70.499,21.464 70.218,21.298 L70.218,21.298 Z" id="Fill-161" fill="#353F49"></path>
                <path d="M94,47.109 C94,73.062 72.964,94.115 46.994,94.115 C21.039,94.115 0,73.062 0,47.109 C0,21.153 21.039,0.106 46.994,0.106 C72.964,0.106 94,21.153 94,47.109 Z" id="Stroke-162" stroke="#474F59" stroke-width="2" stroke-dasharray="3.515,3.515"></path>
            </g>
        </g>
    </g>
</svg>