<?xml version="1.0" encoding="UTF-8"?>
<svg width="120px" height="76px" viewBox="0 0 120 76" version="1.1" xmlns="http://www.w3.org/2000/svg" xmlns:xlink="http://www.w3.org/1999/xlink">
    <!-- Generator: Sketch 46.1 (44463) - http://www.bohemiancoding.com/sketch -->
    <title>05</title>
    <desc>Created with Sketch.</desc>
    <defs></defs>
    <g id="Desktop" stroke="none" stroke-width="1" fill="none" fill-rule="evenodd">
        <g id="Главная-страница" transform="translate(-1039.000000, -1266.000000)">
            <g id="05" transform="translate(1039.000000, 1266.000000)">
                <polygon id="Fill-1029" fill="#353F49" points="8.28488372 68.2886512 25.4069767 68.2886512 25.4069767 0.430372093 8.28488372 0.430372093"></polygon>
                <path d="M21.1253488,56.4220465 C21.1253488,58.7913023 19.2085581,60.7089767 16.8463721,60.7089767 C14.4771163,60.7089767 12.5647442,58.7913023 12.5647442,56.4220465 C12.5647442,54.0633953 14.4771163,52.1483721 16.8463721,52.1483721 C19.2085581,52.1483721 21.1253488,54.0633953 21.1253488,56.4220465" id="Fill-1030" fill="#FFFFFF"></path>
                <path d="M20.3450233,56.4220465 C20.3450233,58.3635814 18.778186,59.9268837 16.8463721,59.9268837 C14.911907,59.9268837 13.3415349,58.3635814 13.3415349,56.4220465 C13.3415349,54.492 14.911907,52.9216279 16.8463721,52.9216279 C18.778186,52.9216279 20.3450233,54.492 20.3450233,56.4220465" id="Fill-1031" fill="#232E38"></path>
                <polygon id="Fill-1032" fill="#FFFFFF" points="11.3982326 44.5660465 22.2936279 44.5660465 22.2936279 3.8547907 11.3982326 3.8547907"></polygon>
                <polygon id="Fill-1033" fill="#CCCBCA" points="13.344186 13.7003256 20.3476744 13.7003256 20.3476744 5.99516279 13.344186 5.99516279"></polygon>
                <polygon id="Fill-1034" fill="#CCCBCA" points="13.344186 42.4265581 20.3476744 42.4265581 20.3476744 38.5735349 13.344186 38.5735349"></polygon>
                <polygon id="Fill-1035" fill="#CCCBCA" points="13.344186 17.1309302 20.3476744 17.1309302 20.3476744 16.2719535 13.344186 16.2719535"></polygon>
                <polygon id="Fill-1036" fill="#CCCBCA" points="13.344186 20.5606512 20.3476744 20.5606512 20.3476744 19.7052093 13.344186 19.7052093"></polygon>
                <polygon id="Fill-1037" fill="#CCCBCA" points="13.344186 23.9912558 20.3476744 23.9912558 20.3476744 23.1331628 13.344186 23.1331628"></polygon>
                <polygon id="Fill-1038" fill="#CCCBCA" points="13.344186 27.4236279 20.3476744 27.4236279 20.3476744 26.5655349 13.344186 26.5655349"></polygon>
                <polygon id="Fill-1039" fill="#CCCBCA" points="13.344186 30.8551163 20.3476744 30.8551163 20.3476744 29.9961395 13.344186 29.9961395"></polygon>
                <polygon id="Fill-1040" fill="#F77B55" points="25.4069767 68.2886512 42.5290698 68.2886512 42.5290698 0.430372093 25.4069767 0.430372093"></polygon>
                <path d="M38.2474419,56.4220465 C38.2474419,58.7913023 36.3306512,60.7089767 33.9684651,60.7089767 C31.5992093,60.7089767 29.6868372,58.7913023 29.6868372,56.4220465 C29.6868372,54.0633953 31.5992093,52.1483721 33.9684651,52.1483721 C36.3306512,52.1483721 38.2474419,54.0633953 38.2474419,56.4220465" id="Fill-1041" fill="#FFFFFF"></path>
                <path d="M37.4671163,56.4220465 C37.4671163,58.3635814 35.9002791,59.9268837 33.9684651,59.9268837 C32.034,59.9268837 30.4636279,58.3635814 30.4636279,56.4220465 C30.4636279,54.492 32.034,52.9216279 33.9684651,52.9216279 C35.9002791,52.9216279 37.4671163,54.492 37.4671163,56.4220465" id="Fill-1042" fill="#232E38"></path>
                <polygon id="Fill-1043" fill="#FFFFFF" points="28.5203256 44.5660465 39.4157209 44.5660465 39.4157209 3.8547907 28.5203256 3.8547907"></polygon>
                <polygon id="Fill-1044" fill="#CCCBCA" points="30.4662791 13.7003256 37.4697674 13.7003256 37.4697674 5.99516279 30.4662791 5.99516279"></polygon>
                <polygon id="Fill-1045" fill="#CCCBCA" points="30.4662791 42.4265581 37.4697674 42.4265581 37.4697674 38.5735349 30.4662791 38.5735349"></polygon>
                <polygon id="Fill-1046" fill="#CCCBCA" points="30.4662791 17.1309302 37.4697674 17.1309302 37.4697674 16.2719535 30.4662791 16.2719535"></polygon>
                <polygon id="Fill-1047" fill="#CCCBCA" points="30.4662791 20.5606512 37.4697674 20.5606512 37.4697674 19.7052093 30.4662791 19.7052093"></polygon>
                <polygon id="Fill-1048" fill="#CCCBCA" points="30.4662791 23.9912558 37.4697674 23.9912558 37.4697674 23.1331628 30.4662791 23.1331628"></polygon>
                <polygon id="Fill-1049" fill="#CCCBCA" points="30.4662791 27.4236279 37.4697674 27.4236279 37.4697674 26.5655349 30.4662791 26.5655349"></polygon>
                <polygon id="Fill-1050" fill="#CCCBCA" points="30.4662791 30.8551163 37.4697674 30.8551163 37.4697674 29.9961395 30.4662791 29.9961395"></polygon>
                <polygon id="Fill-1051" fill="#353F49" points="42.5290698 68.2886512 59.6511628 68.2886512 59.6511628 0.430372093 42.5290698 0.430372093"></polygon>
                <path d="M55.3695349,56.4220465 C55.3695349,58.7913023 53.4527442,60.7089767 51.0905581,60.7089767 C48.7213023,60.7089767 46.8089302,58.7913023 46.8089302,56.4220465 C46.8089302,54.0633953 48.7213023,52.1483721 51.0905581,52.1483721 C53.4527442,52.1483721 55.3695349,54.0633953 55.3695349,56.4220465" id="Fill-1052" fill="#FFFFFF"></path>
                <path d="M54.5892093,56.4220465 C54.5892093,58.3635814 53.0223721,59.9268837 51.0905581,59.9268837 C49.156093,59.9268837 47.5857209,58.3635814 47.5857209,56.4220465 C47.5857209,54.492 49.156093,52.9216279 51.0905581,52.9216279 C53.0223721,52.9216279 54.5892093,54.492 54.5892093,56.4220465" id="Fill-1053" fill="#232E38"></path>
                <polygon id="Fill-1054" fill="#FFFFFF" points="45.6424186 44.5660465 56.537814 44.5660465 56.537814 3.8547907 45.6424186 3.8547907"></polygon>
                <polygon id="Fill-1055" fill="#CCCBCA" points="47.5883721 13.7003256 54.5918605 13.7003256 54.5918605 5.99516279 47.5883721 5.99516279"></polygon>
                <polygon id="Fill-1056" fill="#CCCBCA" points="47.5883721 42.4265581 54.5918605 42.4265581 54.5918605 38.5735349 47.5883721 38.5735349"></polygon>
                <polygon id="Fill-1057" fill="#CCCBCA" points="47.5883721 17.1309302 54.5918605 17.1309302 54.5918605 16.2719535 47.5883721 16.2719535"></polygon>
                <polygon id="Fill-1058" fill="#CCCBCA" points="47.5883721 20.5606512 54.5918605 20.5606512 54.5918605 19.7052093 47.5883721 19.7052093"></polygon>
                <polygon id="Fill-1059" fill="#CCCBCA" points="47.5883721 23.9912558 54.5918605 23.9912558 54.5918605 23.1331628 47.5883721 23.1331628"></polygon>
                <polygon id="Fill-1060" fill="#CCCBCA" points="47.5883721 27.4236279 54.5918605 27.4236279 54.5918605 26.5655349 47.5883721 26.5655349"></polygon>
                <polygon id="Fill-1061" fill="#CCCBCA" points="47.5883721 30.8551163 54.5918605 30.8551163 54.5918605 29.9961395 47.5883721 29.9961395"></polygon>
                <polygon id="Fill-1062" fill="#ADECF7" points="59.6511628 68.2886512 76.7732558 68.2886512 76.7732558 0.430372093 59.6511628 0.430372093"></polygon>
                <path d="M72.4916279,56.4220465 C72.4916279,58.7913023 70.5748372,60.7089767 68.2126512,60.7089767 C65.8433953,60.7089767 63.9310233,58.7913023 63.9310233,56.4220465 C63.9310233,54.0633953 65.8433953,52.1483721 68.2126512,52.1483721 C70.5748372,52.1483721 72.4916279,54.0633953 72.4916279,56.4220465" id="Fill-1063" fill="#FFFFFF"></path>
                <path d="M71.7113023,56.4220465 C71.7113023,58.3635814 70.1444651,59.9268837 68.2126512,59.9268837 C66.278186,59.9268837 64.707814,58.3635814 64.707814,56.4220465 C64.707814,54.492 66.278186,52.9216279 68.2126512,52.9216279 C70.1444651,52.9216279 71.7113023,54.492 71.7113023,56.4220465" id="Fill-1064" fill="#232E38"></path>
                <polygon id="Fill-1065" fill="#FFFFFF" points="62.7645116 44.5660465 73.659907 44.5660465 73.659907 3.8547907 62.7645116 3.8547907"></polygon>
                <polygon id="Fill-1066" fill="#CCCBCA" points="64.7104651 13.7003256 71.7139535 13.7003256 71.7139535 5.99516279 64.7104651 5.99516279"></polygon>
                <polygon id="Fill-1067" fill="#CCCBCA" points="64.7104651 42.4265581 71.7139535 42.4265581 71.7139535 38.5735349 64.7104651 38.5735349"></polygon>
                <polygon id="Fill-1068" fill="#CCCBCA" points="64.7104651 17.1309302 71.7139535 17.1309302 71.7139535 16.2719535 64.7104651 16.2719535"></polygon>
                <polygon id="Fill-1069" fill="#CCCBCA" points="64.7104651 20.5606512 71.7139535 20.5606512 71.7139535 19.7052093 64.7104651 19.7052093"></polygon>
                <polygon id="Fill-1070" fill="#CCCBCA" points="64.7104651 23.9912558 71.7139535 23.9912558 71.7139535 23.1331628 64.7104651 23.1331628"></polygon>
                <polygon id="Fill-1071" fill="#CCCBCA" points="64.7104651 27.4236279 71.7139535 27.4236279 71.7139535 26.5655349 64.7104651 26.5655349"></polygon>
                <polygon id="Fill-1072" fill="#CCCBCA" points="64.7104651 30.8551163 71.7139535 30.8551163 71.7139535 29.9961395 64.7104651 29.9961395"></polygon>
                <polygon id="Fill-1073" fill="#76D0DE" points="76.7732558 68.2886512 111.017442 68.2886512 111.017442 0.430372093 76.7732558 0.430372093"></polygon>
                <polygon id="Fill-1074" fill="#656A73" points="0 75.664186 93.8953488 75.664186 93.8953488 68.2886512 0 68.2886512"></polygon>
                <polygon id="Fill-1075" fill="#232E38" points="93.8953488 75.664186 119.302326 75.664186 119.302326 68.2886512 93.8953488 68.2886512"></polygon>
            </g>
        </g>
    </g>
</svg>