<?xml version="1.0" encoding="UTF-8"?>
<svg width="117px" height="100px" viewBox="0 0 117 100" version="1.1" xmlns="http://www.w3.org/2000/svg" xmlns:xlink="http://www.w3.org/1999/xlink">
    <!-- Generator: Sketch 46.1 (44463) - http://www.bohemiancoding.com/sketch -->
    <title>06</title>
    <desc>Created with Sketch.</desc>
    <defs></defs>
    <g id="Desktop" stroke="none" stroke-width="1" fill="none" fill-rule="evenodd">
        <g id="Главная-страница" transform="translate(-471.000000, -1744.000000)">
            <g id="06" transform="translate(471.000000, 1744.000000)">
                <path d="M97.5275,62.1541667 L97.5275,80.9025 L116.278333,80.9025 C116.278333,70.54 107.889167,62.1541667 97.5275,62.1541667" id="Fill-568" fill="#D9D8D7"></path>
                <path d="M97.5275,80.9025 L97.5275,62.1541667 C87.1791667,62.1541667 78.7783333,70.54 78.7783333,80.9025 C78.7783333,91.2558333 87.1791667,99.6316667 97.5275,99.6316667 C102.715833,99.6316667 107.388333,97.535 110.773333,94.1375 L97.5275,80.9025" id="Fill-569" fill="#F77B55"></path>
                <path d="M97.5275,80.9025 L110.773333,94.1375 C114.139167,90.7625 116.278333,86.0766667 116.278333,80.9025 L97.5275,80.9025" id="Fill-570" fill="#353F49"></path>
                <path d="M19.1125,23.675 C19.1125,28.8458333 14.9233333,33.0366667 9.75166667,33.0366667 C4.57416667,33.0366667 0.388333333,28.8458333 0.388333333,23.675 C0.388333333,18.5016667 4.57416667,14.31 9.75166667,14.31 C14.9233333,14.31 19.1125,18.5016667 19.1125,23.675" id="Fill-571" fill="#353F49"></path>
                <path d="M17.3591667,86.3641667 C17.3591667,88.1708333 15.8933333,89.6408333 14.0825,89.6408333 C12.2716667,89.6408333 10.8075,88.1708333 10.8075,86.3641667 C10.8075,84.5525 12.2716667,83.0833333 14.0825,83.0833333 C15.8933333,83.0833333 17.3591667,84.5525 17.3591667,86.3641667" id="Fill-572" fill="#F77B55"></path>
                <path d="M110.635833,28.3091667 C110.635833,31.9308333 107.6975,34.8633333 104.08,34.8633333 C100.461667,34.8633333 97.5283333,31.9308333 97.5283333,28.3091667 C97.5283333,24.6925 100.461667,21.7566667 104.08,21.7566667 C107.6975,21.7566667 110.635833,24.6925 110.635833,28.3091667" id="Fill-573" fill="#D9D8D7"></path>
                <polygon id="Fill-574" fill="#474F59" points="29.1683333 84.7533333 87.5675 84.7533333 87.5675 26.3558333 29.1683333 26.3558333"></polygon>
                <polygon id="Fill-575" fill="#232E38" points="35.165 39.3591667 55.5675 39.3591667 55.5675 32.1583333 35.165 32.1583333"></polygon>
                <polygon id="Fill-576" fill="#656A73" points="36.2441667 38.2783333 54.4941667 38.2783333 54.4941667 33.2408333 36.2441667 33.2408333"></polygon>
                <polygon id="Fill-577" fill="#474F59" points="47.8716667 38.2783333 48.9525 38.2783333 48.9525 33.2408333 47.8716667 33.2408333"></polygon>
                <polygon id="Fill-578" fill="#474F59" points="41.79 38.2783333 42.8691667 38.2783333 42.8691667 33.2408333 41.79 33.2408333"></polygon>
                <polygon id="Fill-579" fill="#232E38" points="61.5733333 39.3591667 68.77 39.3591667 68.77 32.1583333 61.5733333 32.1583333"></polygon>
                <polygon id="Fill-580" fill="#232E38" points="74.7675 39.3591667 81.9633333 39.3591667 81.9633333 32.1583333 74.7675 32.1583333"></polygon>
                <polygon id="Fill-581" fill="#232E38" points="35.165 52.5558333 42.3641667 52.5558333 42.3641667 45.355 35.165 45.355"></polygon>
                <polygon id="Fill-582" fill="#232E38" points="48.3633333 52.5558333 55.5675 52.5558333 55.5675 45.355 48.3633333 45.355"></polygon>
                <polygon id="Fill-583" fill="#232E38" points="61.5733333 52.5558333 68.77 52.5558333 68.77 45.355 61.5733333 45.355"></polygon>
                <polygon id="Fill-584" fill="#232E38" points="74.7675 52.5558333 81.9633333 52.5558333 81.9633333 45.355 74.7675 45.355"></polygon>
                <polygon id="Fill-585" fill="#232E38" points="35.165 65.7575 42.3641667 65.7575 42.3641667 58.5516667 35.165 58.5516667"></polygon>
                <polygon id="Fill-586" fill="#232E38" points="48.3633333 65.7575 55.5675 65.7575 55.5675 58.5516667 48.3633333 58.5516667"></polygon>
                <polygon id="Fill-587" fill="#232E38" points="61.5733333 65.7575 68.77 65.7575 68.77 58.5516667 61.5733333 58.5516667"></polygon>
                <polygon id="Fill-588" fill="#232E38" points="35.165 78.9558333 42.3641667 78.9558333 42.3641667 71.7616667 35.165 71.7616667"></polygon>
                <polygon id="Fill-589" fill="#232E38" points="48.3633333 78.9558333 55.5675 78.9558333 55.5675 71.7616667 48.3633333 71.7616667"></polygon>
                <polygon id="Fill-590" fill="#232E38" points="61.5733333 78.9558333 68.77 78.9558333 68.77 71.7616667 61.5733333 71.7616667"></polygon>
                <polygon id="Fill-591" fill="#656A73" points="74.7675 78.9558333 81.9633333 78.9558333 81.9633333 58.5516667 74.7675 58.5516667"></polygon>
                <polygon id="Fill-592" fill="#353F49" points="29.1683333 26.3558333 87.5675 26.3558333 87.5675 0.3625 29.1683333 0.3625"></polygon>
                <polygon id="Fill-593" fill="#76D0DE" points="33.3216667 22.2058333 83.4141667 22.2058333 83.4141667 4.51666667 33.3216667 4.51666667"></polygon>
                <polygon id="Fill-594" fill="#ADECF7" points="35.4833333 20.0458333 81.2558333 20.0458333 81.2558333 6.6725 35.4833333 6.6725"></polygon>
                <polygon id="Fill-595" fill="#D9D8D7" points="29.1683333 27.0825 87.5675 27.0825 87.5675 25.6316667 29.1683333 25.6316667"></polygon>
            </g>
        </g>
    </g>
</svg>