<?xml version="1.0" encoding="UTF-8"?>
<svg width="116px" height="108px" viewBox="0 0 116 108" version="1.1" xmlns="http://www.w3.org/2000/svg" xmlns:xlink="http://www.w3.org/1999/xlink">
    <!-- Generator: Sketch 46.1 (44463) - http://www.bohemiancoding.com/sketch -->
    <title>07</title>
    <desc>Created with Sketch.</desc>
    <defs></defs>
    <g id="Desktop" stroke="none" stroke-width="1" fill="none" fill-rule="evenodd">
        <g id="Главная-страница" transform="translate(-661.000000, -1743.000000)">
            <g id="07" transform="translate(661.000000, 1743.000000)">
                <polygon id="Fill-391" fill="#F2F2F2" points="23.5588696 98.6016522 93.0498261 98.6016522 93.0498261 0.321652174 23.5588696 0.321652174"></polygon>
                <polygon id="Fill-392" fill="#F77B55" points="30.402 52.1906087 32.5831304 52.1906087 32.5831304 34.7165217 30.402 34.7165217"></polygon>
                <polygon id="Fill-393" fill="#353F49" points="33.6584348 52.1906087 35.8325217 52.1906087 35.8325217 27.9790435 33.6584348 27.9790435"></polygon>
                <polygon id="Fill-394" fill="#FDCA5C" points="36.9070435 52.1906087 39.0905217 52.1906087 39.0905217 37.0150435 36.9070435 37.0150435"></polygon>
                <polygon id="Fill-395" fill="#CCCBCA" points="40.1595652 52.1906087 42.3383478 52.1906087 42.3383478 32.0141739 40.1595652 32.0141739"></polygon>
                <polygon id="Fill-396" fill="#F77B55" points="45.0258261 52.1906087 47.2046087 52.1906087 47.2046087 47.2202609 45.0258261 47.2202609"></polygon>
                <polygon id="Fill-397" fill="#353F49" points="48.279913 52.1906087 50.4594783 52.1906087 50.4594783 40.8928696 48.279913 40.8928696"></polygon>
                <polygon id="Fill-398" fill="#FDCA5C" points="51.5293043 52.1906087 53.7127826 52.1906087 53.7127826 42.987913 51.5293043 42.987913"></polygon>
                <polygon id="Fill-399" fill="#CCCBCA" points="54.7833913 52.1906087 56.9629565 52.1906087 56.9629565 35.5241739 54.7833913 35.5241739"></polygon>
                <polygon id="Fill-400" fill="#F77B55" points="59.648087 52.1906087 61.8276522 52.1906087 61.8276522 46.2466957 59.648087 46.2466957"></polygon>
                <polygon id="Fill-401" fill="#353F49" points="62.9021739 52.1906087 65.0786087 52.1906087 65.0786087 47.3102609 62.9021739 47.3102609"></polygon>
                <polygon id="Fill-402" fill="#FDCA5C" points="66.1507826 52.1906087 68.3342609 52.1906087 68.3342609 38.3204348 66.1507826 38.3204348"></polygon>
                <polygon id="Fill-403" fill="#CCCBCA" points="69.408 52.1906087 71.5828696 52.1906087 71.5828696 42.5512174 69.408 42.5512174"></polygon>
                <polygon id="Fill-404" fill="#F77B55" points="74.2695652 52.1906087 76.4530435 52.1906087 76.4530435 29.9355652 74.2695652 29.9355652"></polygon>
                <polygon id="Fill-405" fill="#353F49" points="77.522087 52.1906087 79.7055652 52.1906087 79.7055652 36.9258261 77.522087 36.9258261"></polygon>
                <polygon id="Fill-406" fill="#FDCA5C" points="80.7769565 52.1906087 82.9533913 52.1906087 82.9533913 43.6742609 80.7769565 43.6742609"></polygon>
                <polygon id="Fill-407" fill="#CCCBCA" points="84.0286957 52.1906087 86.2066957 52.1906087 86.2066957 33.386087 84.0286957 33.386087"></polygon>
                <polygon id="Fill-408" fill="#CCCBCA" points="30.4027826 80.6415652 86.2066957 80.6415652 86.2066957 79.0411304 30.4027826 79.0411304"></polygon>
                <polygon id="Fill-409" fill="#CCCBCA" points="30.4027826 84.6469565 86.2066957 84.6469565 86.2066957 83.0449565 30.4027826 83.0449565"></polygon>
                <polygon id="Fill-410" fill="#CCCBCA" points="30.4027826 88.6492174 58.3043478 88.6492174 58.3043478 87.044087 30.4027826 87.044087"></polygon>
                <polygon id="Fill-411" fill="#353F49" points="30.4027826 15.9691304 86.2066957 15.9691304 86.2066957 14.3694783 30.4027826 14.3694783"></polygon>
                <polygon id="Fill-412" fill="#F77B55" points="30.4027826 11.9653043 86.2066957 11.9653043 86.2066957 7.16556522 30.4027826 7.16556522"></polygon>
                <polygon id="Fill-413" fill="#CCCBCA" points="30.4027826 19.9737391 86.2066957 19.9737391 86.2066957 18.3717391 30.4027826 18.3717391"></polygon>
                <polygon id="Fill-414" fill="#CCCBCA" points="30.4027826 23.976 58.3043478 23.976 58.3043478 22.3716522 30.4027826 22.3716522"></polygon>
                <polygon id="Fill-415" fill="#CCCBCA" points="30.402 75.0388696 56.8565217 75.0388696 56.8565217 63.4046087 30.402 63.4046087"></polygon>
                <polygon id="Fill-416" fill="#CCCBCA" points="59.7529565 75.0388696 86.2066957 75.0388696 86.2066957 63.4046087 59.7529565 63.4046087"></polygon>
                <polygon id="Fill-417" fill="#CCCBCA" points="30.402 59.4015652 33.609913 59.4015652 33.609913 56.1936522 30.402 56.1936522"></polygon>
                <polyline id="Fill-418" fill="#CCCBCA" points="42.4361739 59.4023478 35.2134783 59.4015652 35.2134783 57.7972174 42.4361739 57.798 42.4361739 59.4023478"></polyline>
                <polygon id="Fill-419" fill="#F77B55" points="44.9921739 59.4015652 48.1993043 59.4015652 48.1993043 56.1936522 44.9921739 56.1936522"></polygon>
                <polyline id="Fill-420" fill="#CCCBCA" points="57.0263478 59.4015652 49.8036522 59.4015652 49.8036522 57.7972174 57.0263478 57.798 57.0263478 59.4015652"></polyline>
                <polygon id="Fill-421" fill="#FDCA5C" points="59.5831304 59.4015652 62.7902609 59.4015652 62.7902609 56.1936522 59.5831304 56.1936522"></polygon>
                <polyline id="Fill-422" fill="#CCCBCA" points="71.618087 59.4023478 64.3938261 59.4015652 64.3938261 57.7972174 71.618087 57.798 71.618087 59.4023478"></polyline>
                <polygon id="Fill-423" fill="#353F49" points="74.1717391 59.4015652 77.3796522 59.4015652 77.3796522 56.1936522 74.1717391 56.1936522"></polygon>
                <polyline id="Fill-424" fill="#CCCBCA" points="86.2066957 59.4023478 78.984 59.4015652 78.984 57.7972174 86.2066957 57.798 86.2066957 59.4023478"></polyline>
                <polygon id="Fill-425" fill="#474F59" points="0.480521739 91.7733913 27.8718261 91.7733913 27.8718261 64.3836522 0.480521739 64.3836522"></polygon>
                <polygon id="Fill-426" fill="#232E38" points="3.29478261 70.4817391 12.8637391 70.4817391 12.8637391 67.1047826 3.29478261 67.1047826"></polygon>
                <polygon id="Fill-427" fill="#656A73" points="3.80034783 69.9746087 12.3573913 69.9746087 12.3573913 67.611913 3.80034783 67.611913"></polygon>
                <polygon id="Fill-428" fill="#474F59" points="9.252 69.9746087 9.75756522 69.9746087 9.75756522 67.611913 9.252 67.611913"></polygon>
                <polygon id="Fill-429" fill="#474F59" points="6.40095652 69.9746087 6.90652174 69.9746087 6.90652174 67.611913 6.40095652 67.611913"></polygon>
                <polygon id="Fill-430" fill="#232E38" points="15.678 70.4817391 19.0533913 70.4817391 19.0533913 67.1047826 15.678 67.1047826"></polygon>
                <polygon id="Fill-431" fill="#232E38" points="21.8668696 70.4817391 25.2438261 70.4817391 25.2438261 67.1047826 21.8668696 67.1047826"></polygon>
                <polygon id="Fill-432" fill="#232E38" points="3.29478261 76.6721739 6.67017391 76.6721739 6.67017391 73.2952174 3.29478261 73.2952174"></polygon>
                <polygon id="Fill-433" fill="#232E38" points="9.48521739 76.6721739 12.8637391 76.6721739 12.8637391 73.2952174 9.48521739 73.2952174"></polygon>
                <polygon id="Fill-434" fill="#232E38" points="15.678 76.6721739 19.0533913 76.6721739 19.0533913 73.2952174 15.678 73.2952174"></polygon>
                <polygon id="Fill-435" fill="#232E38" points="21.8668696 76.6721739 25.2438261 76.6721739 25.2438261 73.2952174 21.8668696 73.2952174"></polygon>
                <polygon id="Fill-436" fill="#232E38" points="3.29478261 82.8633913 6.67017391 82.8633913 6.67017391 79.4856522 3.29478261 79.4856522"></polygon>
                <polygon id="Fill-437" fill="#232E38" points="9.48521739 82.8633913 12.8637391 82.8633913 12.8637391 79.4856522 9.48521739 79.4856522"></polygon>
                <polygon id="Fill-438" fill="#232E38" points="15.678 82.8633913 19.0533913 82.8633913 19.0533913 79.4856522 15.678 79.4856522"></polygon>
                <polygon id="Fill-439" fill="#232E38" points="3.29478261 89.0546087 6.67017391 89.0546087 6.67017391 85.6784348 3.29478261 85.6784348"></polygon>
                <polygon id="Fill-440" fill="#232E38" points="9.48521739 89.0546087 12.8637391 89.0546087 12.8637391 85.6784348 9.48521739 85.6784348"></polygon>
                <polygon id="Fill-441" fill="#232E38" points="15.678 89.0546087 19.0533913 89.0546087 19.0533913 85.6784348 15.678 85.6784348"></polygon>
                <polygon id="Fill-442" fill="#F77B55" points="21.8668696 89.0546087 25.2438261 89.0546087 25.2438261 79.4856522 21.8668696 79.4856522"></polygon>
                <polygon id="Fill-443" fill="#353F49" points="0.480521739 64.3836522 27.8718261 64.3836522 27.8718261 52.1906087 0.480521739 52.1906087"></polygon>
                <polygon id="Fill-444" fill="#76D0DE" points="2.42843478 62.4365217 25.923913 62.4365217 25.923913 54.1385217 2.42843478 54.1385217"></polygon>
                <polygon id="Fill-445" fill="#ADECF7" points="3.44113043 61.4230435 24.9104348 61.4230435 24.9104348 55.1496522 3.44113043 55.1496522"></polygon>
                <polygon id="Fill-446" fill="#D9D8D7" points="0.480521739 64.7233043 27.8718261 64.7233043 27.8718261 64.044 0.480521739 64.044"></polygon>
                <path d="M115.07087,88.7666087 C115.07087,99.2606087 106.564696,107.767565 96.0714783,107.767565 C85.5782609,107.767565 77.0697391,99.2606087 77.0697391,88.7666087 C77.0697391,78.2726087 85.5782609,69.7664348 96.0714783,69.7664348 C106.564696,69.7664348 115.07087,78.2726087 115.07087,88.7666087" id="Fill-447" fill="#474F59"></path>
                <path d="M115.681304,94.1196522 C115.543565,94.626 115.209391,95.0806957 114.718696,95.3616522 C114.226435,95.6426087 113.664522,95.6981739 113.158957,95.5588696 L107.213478,93.9373043 L108.296609,89.9741739 L114.241304,91.5957391 C114.748435,91.7350435 115.20313,92.0676522 115.484087,92.5606957 C115.765043,93.0513913 115.819043,93.6109565 115.681304,94.1196522" id="Fill-448" fill="#F2F2F2"></path>
                <path d="M108.296609,89.9741739 L107.213478,93.9373043 L109.429043,94.5422609 C109.969043,93.3010435 110.337652,91.9690435 110.509043,90.5791304 L108.296609,89.9741739" id="Fill-449" fill="#D9D8D7"></path>
                <path d="M108.910174,88.7666087 C108.910174,95.8578261 103.161913,101.602957 96.0714783,101.602957 C88.9794783,101.602957 83.2335652,95.8578261 83.2335652,88.7666087 C83.2335652,81.6761739 88.9794783,75.927913 96.0714783,75.927913 C103.161913,75.927913 108.910174,81.6761739 108.910174,88.7666087" id="Fill-450" fill="#FFFFFF"></path>
                <path d="M106.855043,88.7666087 C106.855043,94.7230435 102.02713,99.5517391 96.0714783,99.5517391 C90.1142609,99.5517391 85.2863478,94.7230435 85.2863478,88.7666087 C85.2863478,82.8109565 90.1142609,77.9822609 96.0714783,77.9822609 C102.02713,77.9822609 106.855043,82.8109565 106.855043,88.7666087" id="Fill-451" fill="#FF916E"></path>
                <path d="M88.3666957,91.8485217 C88.3666957,85.892087 93.1953913,81.0633913 99.1510435,81.0633913 C101.34313,81.0633913 103.380261,81.7176522 105.079304,82.8391304 C103.150957,79.9153043 99.8350435,77.9822609 96.0714783,77.9822609 C90.1142609,77.9822609 85.2863478,82.8109565 85.2863478,88.7666087 C85.2863478,92.5333043 87.2178261,95.8468696 90.144,97.776 C89.0217391,96.0753913 88.3666957,94.0374783 88.3666957,91.8485217" id="Fill-452" fill="#F77B55"></path>
                <polyline id="Fill-453" fill="#F2F2F2" points="109.039304 10.0831304 107.042087 3.52095652 105.04487 10.0831304 109.039304 10.0831304"></polyline>
                <polyline id="Fill-454" fill="#CCCBCA" points="107.042087 3.52095652 109.039304 10.0831304 107.784783 10.0831304 107.042087 3.52095652"></polyline>
                <polygon id="Fill-455" fill="#474F59" points="105.04487 56.9981739 109.039304 56.9981739 109.039304 10.0831304 105.04487 10.0831304"></polygon>
                <polygon id="Fill-456" fill="#232E38" points="107.784783 56.9981739 109.039304 56.9981739 109.039304 10.0831304 107.784783 10.0831304"></polygon>
                <polyline id="Fill-457" fill="#353F49" points="107.822348 6.08947826 107.042087 3.52095652 106.25713 6.08947826 107.822348 6.08947826"></polyline>
                <polyline id="Fill-458" fill="#232E38" points="107.822348 6.08947826 107.042087 3.52095652 107.331652 6.08947826 107.822348 6.08947826"></polyline>
                <polygon id="Fill-459" fill="#F2F2F2" points="105.04487 59.3162609 109.039304 59.3162609 109.039304 56.9981739 105.04487 56.9981739"></polygon>
                <polygon id="Fill-460" fill="#CCCBCA" points="107.784783 59.3162609 109.039304 59.3162609 109.039304 56.9981739 107.784783 56.9981739"></polygon>
                <path d="M109.039304,61.8127826 C109.039304,62.3230435 108.844435,62.8348696 108.453913,63.2246087 C108.064174,63.6143478 107.552348,63.8092174 107.041304,63.8092174 C106.531043,63.8092174 106.018435,63.6143478 105.629478,63.2246087 C105.239739,62.8348696 105.04487,62.3230435 105.04487,61.8127826 L105.04487,59.3162609 L109.039304,59.3162609 L109.039304,61.8127826" id="Fill-461" fill="#FF916E"></path>
                <path d="M105.629478,63.2246087 C105.402522,62.9976522 105.24913,62.7276522 105.154435,62.4443478 C105.359478,62.5108696 105.570783,62.553913 105.786,62.553913 C106.297043,62.553913 106.808087,62.3590435 107.197826,61.9685217 C107.587565,61.5795652 107.784783,61.0677391 107.784783,60.5566957 L107.784783,59.3162609 L109.039304,59.3162609 L109.039304,61.8127826 C109.039304,62.3230435 108.844435,62.8348696 108.453913,63.2246087 C108.064174,63.6143478 107.552348,63.8092174 107.041304,63.8092174 C106.531043,63.8092174 106.018435,63.6143478 105.629478,63.2246087" id="Fill-462" fill="#F77B55"></path>
            </g>
        </g>
    </g>
</svg>