<?xml version="1.0" encoding="UTF-8"?>
<svg width="103px" height="119px" viewBox="0 0 103 119" version="1.1" xmlns="http://www.w3.org/2000/svg" xmlns:xlink="http://www.w3.org/1999/xlink">
    <!-- Generator: Sketch 46.1 (44463) - http://www.bohemiancoding.com/sketch -->
    <title>08</title>
    <desc>Created with Sketch.</desc>
    <defs></defs>
    <g id="Desktop" stroke="none" stroke-width="1" fill="none" fill-rule="evenodd">
        <g id="Главная-страница" transform="translate(-857.000000, -1733.000000)">
            <g id="08" transform="translate(857.000000, 1733.000000)">
                <path d="M0.575166667,105.809181 L0.575166667,110.160118 C0.575166667,112.569868 2.52461806,114.522625 4.92775694,114.522625 L11.5867986,114.522625 L11.5867986,105.809181 L0.575166667,105.809181" id="Fill-1135" fill="#E6E5E5"></path>
                <path d="M13.6329375,30.2879792 C11.2322778,30.2879792 9.28034722,32.2399097 9.28034722,34.6422222 L9.28034722,110.160118 C9.28034722,112.569868 7.32924306,114.522625 4.92775694,114.522625 L39.9377222,114.522625 C41.0508681,114.522625 42.1631875,114.089597 43.0151944,113.246681 C43.8630694,112.393021 44.2927917,111.280701 44.2927917,110.160118 L44.2927917,30.2879792 L13.6329375,30.2879792" id="Fill-1136" fill="#CCCBCA"></path>
                <path d="M13.6329375,30.2879792 C16.0410347,30.2879792 17.9921389,32.2399097 17.9921389,34.6422222 L17.9921389,64.2170278 C17.9921389,66.625125 19.9448958,68.5762292 22.3439028,68.5762292 L31.3515417,68.5762292 L31.3515417,30.2879792 L13.6329375,30.2879792" id="Fill-1137" fill="#F2F2F2"></path>
                <polygon id="Fill-1138" fill="#474F59" points="22.9926181 51.2005764 47.9950139 51.2005764 47.9950139 50.0758611 22.9926181 50.0758611"></polygon>
                <polygon id="Fill-1139" fill="#474F59" points="22.9926181 48.0660833 47.9950139 48.0660833 47.9950139 46.9405417 22.9926181 46.9405417"></polygon>
                <polygon id="Fill-1140" fill="#474F59" points="22.9926181 44.937375 47.9950139 44.937375 47.9950139 43.8052222 22.9926181 43.8052222"></polygon>
                <polygon id="Fill-1141" fill="#474F59" points="22.9926181 41.8020556 47.9950139 41.8020556 47.9950139 40.6740347 22.9926181 40.6740347"></polygon>
                <polygon id="Fill-1142" fill="#474F59" points="22.9926181 38.6667361 47.9950139 38.6667361 47.9950139 37.5420208 22.9926181 37.5420208"></polygon>
                <polygon id="Fill-1143" fill="#474F59" points="22.9926181 54.3367222 47.9950139 54.3367222 47.9950139 53.2111806 22.9926181 53.2111806"></polygon>
                <polygon id="Fill-1144" fill="#474F59" points="22.9926181 57.4720417 47.9950139 57.4720417 47.9950139 56.3465 22.9926181 56.3465"></polygon>
                <polygon id="Fill-1145" fill="#474F59" points="22.9926181 60.6073611 47.9950139 60.6073611 47.9950139 59.4826458 22.9926181 59.4826458"></polygon>
                <path d="M31.0490833,0.456993056 C28.6484236,0.456993056 26.6973194,2.40975 26.6973194,4.80958333 L26.6973194,64.2170278 C26.6973194,66.625125 24.7462153,68.5762292 22.3439028,68.5762292 L61.7097639,68.5762292 L61.7097639,0.456993056 L31.0490833,0.456993056" id="Fill-1146" fill="#D9D8D7"></path>
                <path d="M69.1373472,1.73376389 C68.2936042,0.880104167 67.1730208,0.456993056 66.0607014,0.456993056 L31.0490833,0.456993056 C33.4596597,0.456993056 35.4115903,2.40975 35.4115903,4.80958333 L35.4115903,40.0071389 C35.4115903,41.3723333 36.0379931,42.6028264 37.0370972,43.4002917 C37.7800208,44.0043819 38.7328472,44.3671667 39.7633542,44.3671667 L70.4141181,44.3671667 L70.4141181,4.80958333 C70.4141181,3.69809028 69.9926597,2.58659722 69.1373472,1.73376389" id="Fill-1147" fill="#F2F2F2"></path>
                <polygon id="Fill-1148" fill="#474F59" points="40.3732292 21.4026458 65.3673611 21.4026458 65.3673611 20.2787569 40.3732292 20.2787569"></polygon>
                <polygon id="Fill-1149" fill="#474F59" points="40.3732292 18.2764167 65.3673611 18.2764167 65.3673611 17.1442639 40.3732292 17.1442639"></polygon>
                <polygon id="Fill-1150" fill="#474F59" points="40.3732292 15.1402708 65.3673611 15.1402708 65.3673611 14.0155556 40.3732292 14.0155556"></polygon>
                <polygon id="Fill-1151" fill="#474F59" points="40.3732292 12.0057778 65.3673611 12.0057778 65.3673611 10.8810625 40.3732292 10.8810625"></polygon>
                <polygon id="Fill-1152" fill="#474F59" points="40.3732292 8.86963194 65.3673611 8.86963194 65.3673611 7.74409028 40.3732292 7.74409028"></polygon>
                <polygon id="Fill-1153" fill="#474F59" points="40.3732292 24.5387917 65.3673611 24.5387917 65.3673611 23.4149028 40.3732292 23.4149028"></polygon>
                <polygon id="Fill-1154" fill="#474F59" points="40.3732292 27.6741111 65.3673611 27.6741111 65.3673611 26.5502222 40.3732292 26.5502222"></polygon>
                <polygon id="Fill-1155" fill="#474F59" points="40.3732292 30.8102569 65.3673611 30.8102569 65.3673611 29.6855417 40.3732292 29.6855417"></polygon>
                <polygon id="Fill-1156" fill="#474F59" points="40.3732292 33.9455764 65.3673611 33.9455764 65.3673611 32.8208611 40.3732292 32.8208611"></polygon>
                <polygon id="Fill-1157" fill="#474F59" points="40.3732292 37.0808958 52.8649236 37.0808958 52.8649236 35.9470903 40.3732292 35.9470903"></polygon>
                <path d="M48.4743194,17.7747986 C46.0662222,17.7747986 44.1151181,19.7250764 44.1151181,22.1249097 L44.1151181,40.0071389 C44.1151181,42.4094514 42.170625,44.3671667 39.7633542,44.3671667 L56.2663403,44.3671667 L56.2663403,17.7747986 L48.4743194,17.7747986" id="Fill-1158" fill="#CCCBCA"></path>
                <path d="M86.5609306,19.0515694 C85.70975,18.1987361 84.5966042,17.7764514 83.4776736,17.7764514 L48.477625,17.7764514 C50.8815903,17.7764514 52.8293889,19.72425 52.8293889,22.1282153 L52.8293889,36.2966528 L87.8310903,36.2966528 L87.8310903,22.1282153 C87.8310903,21.0175486 87.4079792,19.9019236 86.5609306,19.0515694" id="Fill-1159" fill="#F2F2F2"></path>
                <polygon id="Fill-1160" fill="#474F59" points="57.8298681 26.6427778 82.8322639 26.6427778 82.8322639 25.5197153 57.8298681 25.5197153"></polygon>
                <polygon id="Fill-1161" fill="#474F59" points="57.8298681 29.77975 82.8322639 29.77975 82.8322639 28.6550347 57.8298681 28.6550347"></polygon>
                <polygon id="Fill-1162" fill="#474F59" points="57.8298681 32.9150694 82.8322639 32.9150694 82.8322639 31.787875 57.8298681 31.787875"></polygon>
                <polygon id="Fill-1163" fill="#474F59" points="49.9246319 95.2785069 90.7358472 95.2785069 90.7358472 54.4681181 49.9246319 54.4681181"></polygon>
                <polygon id="Fill-1164" fill="#232E38" points="54.1210347 63.5526111 68.3745903 63.5526111 68.3745903 58.5248611 54.1210347 58.5248611"></polygon>
                <polygon id="Fill-1165" fill="#656A73" points="54.8697431 62.80225 67.6242292 62.80225 67.6242292 59.2743958 54.8697431 59.2743958"></polygon>
                <polygon id="Fill-1166" fill="#474F59" points="62.9964514 62.80225 63.7468125 62.80225 63.7468125 59.2743958 62.9964514 59.2743958"></polygon>
                <polygon id="Fill-1167" fill="#474F59" points="58.7463333 62.80225 59.4983472 62.80225 59.4983472 59.2743958 58.7463333 59.2743958"></polygon>
                <polygon id="Fill-1168" fill="#232E38" points="72.5709931 63.5526111 77.5962639 63.5526111 77.5962639 58.5248611 72.5709931 58.5248611"></polygon>
                <polygon id="Fill-1169" fill="#232E38" points="81.7918403 63.5526111 86.8195903 63.5526111 86.8195903 58.5248611 81.7918403 58.5248611"></polygon>
                <polygon id="Fill-1170" fill="#232E38" points="54.1210347 72.7751111 59.1471319 72.7751111 59.1471319 67.7481875 54.1210347 67.7481875"></polygon>
                <polygon id="Fill-1171" fill="#232E38" points="63.3435347 72.7751111 68.3745903 72.7751111 68.3745903 67.7481875 63.3435347 67.7481875"></polygon>
                <polygon id="Fill-1172" fill="#232E38" points="72.5709931 72.7751111 77.5962639 72.7751111 77.5962639 67.7481875 72.5709931 67.7481875"></polygon>
                <polygon id="Fill-1173" fill="#232E38" points="81.7918403 72.7751111 86.8195903 72.7751111 86.8195903 67.7481875 81.7918403 67.7481875"></polygon>
                <polygon id="Fill-1174" fill="#232E38" points="54.1210347 82.0017431 59.1471319 82.0017431 59.1471319 76.9698611 54.1210347 76.9698611"></polygon>
                <polygon id="Fill-1175" fill="#232E38" points="63.3435347 82.0017431 68.3745903 82.0017431 68.3745903 76.9698611 63.3435347 76.9698611"></polygon>
                <polygon id="Fill-1176" fill="#232E38" points="72.5709931 82.0017431 77.5962639 82.0017431 77.5962639 76.9698611 72.5709931 76.9698611"></polygon>
                <polygon id="Fill-1177" fill="#232E38" points="54.1210347 91.2267222 59.1471319 91.2267222 59.1471319 86.1973194 54.1210347 86.1973194"></polygon>
                <polygon id="Fill-1178" fill="#232E38" points="63.3435347 91.2267222 68.3745903 91.2267222 68.3745903 86.1973194 63.3435347 86.1973194"></polygon>
                <polygon id="Fill-1179" fill="#232E38" points="72.5709931 91.2267222 77.5962639 91.2267222 77.5962639 86.1973194 72.5709931 86.1973194"></polygon>
                <polygon id="Fill-1180" fill="#656A73" points="81.7918403 91.2267222 86.8195903 91.2267222 86.8195903 76.9698611 81.7918403 76.9698611"></polygon>
                <polygon id="Fill-1181" fill="#353F49" points="49.9246319 54.4681181 90.7358472 54.4681181 90.7358472 36.2966528 49.9246319 36.2966528"></polygon>
                <polygon id="Fill-1182" fill="#76D0DE" points="52.8293889 51.5650139 87.8310903 51.5650139 87.8310903 39.1997569 52.8293889 39.1997569"></polygon>
                <polygon id="Fill-1183" fill="#ADECF7" points="54.3375486 50.0560278 86.3303681 50.0560278 86.3303681 40.7087431 54.3375486 40.7087431"></polygon>
                <path d="M49.2321181,113.818542 C49.2321181,116.477035 51.3856875,118.630604 54.0425278,118.630604 C56.7018472,118.630604 58.8636806,116.477035 58.8636806,113.818542 C58.8636806,111.162528 56.7018472,109.003174 54.0425278,109.003174 C51.3856875,109.003174 49.2321181,111.162528 49.2321181,113.818542" id="Fill-1184" fill="#FAB83E"></path>
                <path d="M48.8098333,113.818542 C48.8098333,116.477035 50.9609236,118.630604 53.6177639,118.630604 C56.2779097,118.630604 58.4298264,116.477035 58.4298264,113.818542 C58.4298264,111.162528 56.2779097,109.003174 53.6177639,109.003174 C50.9609236,109.003174 48.8098333,111.162528 48.8098333,113.818542" id="Fill-1185" fill="#FFDB79"></path>
                <path d="M50.0932153,113.818542 C50.0932153,115.769646 51.6699653,117.346396 53.6177639,117.346396 C55.5680417,117.346396 57.1431389,115.769646 57.1431389,113.818542 C57.1431389,111.874875 55.5680417,110.287382 53.6177639,110.287382 C51.6699653,110.287382 50.0932153,111.874875 50.0932153,113.818542" id="Fill-1186" fill="#FDCA5C"></path>
                <path d="M50.5196319,113.818542 C50.5196319,111.940986 51.9806875,110.408035 53.8309722,110.299778 L53.6177639,110.287382 C51.6699653,110.287382 50.0932153,111.874875 50.0932153,113.818542 C50.0932153,115.769646 51.6699653,117.346396 53.6177639,117.346396 L53.8309722,117.334826 C51.9806875,117.22409 50.5196319,115.692792 50.5196319,113.818542" id="Fill-1187" fill="#FAB83E"></path>
                <path d="M63.5559167,101.982174 C63.5559167,104.641493 65.7086597,106.800021 68.3655,106.800021 C71.0223403,106.800021 73.1759097,104.641493 73.1759097,101.982174 C73.1759097,99.3253333 71.0223403,97.1758958 68.3655,97.1758958 C65.7086597,97.1758958 63.5559167,99.3253333 63.5559167,101.982174" id="Fill-1188" fill="#FAB83E"></path>
                <path d="M63.1303264,101.982174 C63.1303264,104.641493 65.2830694,106.800021 67.9374306,106.800021 C70.6025347,106.800021 72.7544514,104.641493 72.7544514,101.982174 C72.7544514,99.3253333 70.6025347,97.1758958 67.9374306,97.1758958 C65.2830694,97.1758958 63.1303264,99.3253333 63.1303264,101.982174" id="Fill-1189" fill="#FFDB79"></path>
                <path d="M64.4095764,101.982174 C64.4095764,103.933278 65.9945903,105.519118 67.9374306,105.519118 C69.8885347,105.519118 71.4669375,103.933278 71.4669375,101.982174 C71.4669375,100.036028 69.8885347,98.4592778 67.9374306,98.4592778 C65.9945903,98.4592778 64.4095764,100.036028 64.4095764,101.982174" id="Fill-1190" fill="#FDCA5C"></path>
                <path d="M64.8417778,101.982174 C64.8417778,100.107924 66.3036597,98.5815833 68.1531181,98.4716736 L67.9374306,98.4592778 C65.9945903,98.4592778 64.4095764,100.036028 64.4095764,101.982174 C64.4095764,103.933278 65.9945903,105.519118 67.9374306,105.519118 L68.1531181,105.507549 C66.3036597,105.397639 64.8417778,103.864687 64.8417778,101.982174" id="Fill-1191" fill="#FAB83E"></path>
                <polyline id="Fill-1192" fill="#E6E5E5" points="102.723444 62.80225 100.793 56.4564097 98.8642083 62.80225 102.723444 62.80225"></polyline>
                <polyline id="Fill-1193" fill="#CCCBCA" points="100.793 56.4564097 102.723444 62.80225 101.512785 62.80225 100.793 56.4564097"></polyline>
                <polygon id="Fill-1194" fill="#FFDB79" points="98.8642083 108.175958 102.723444 108.175958 102.723444 62.80225 98.8642083 62.80225"></polygon>
                <polygon id="Fill-1195" fill="#FAB83E" points="101.512785 108.175958 102.723444 108.175958 102.723444 62.80225 101.512785 62.80225"></polygon>
                <polyline id="Fill-1196" fill="#353F49" points="101.554104 58.9339236 100.793 56.4564097 100.036028 58.9339236 101.554104 58.9339236"></polyline>
                <polyline id="Fill-1197" fill="#232E38" points="101.554104 58.9339236 100.793 56.4564097 101.078104 58.9339236 101.554104 58.9339236"></polyline>
                <polygon id="Fill-1198" fill="#E6E5E5" points="98.8642083 110.412167 102.723444 110.412167 102.723444 108.175958 98.8642083 108.175958"></polygon>
                <polygon id="Fill-1199" fill="#CCCBCA" points="101.512785 110.412167 102.723444 110.412167 102.723444 108.175958 101.512785 108.175958"></polygon>
                <path d="M102.723444,112.584743 C102.723444,113.080576 102.536681,113.578062 102.156542,113.954896 C101.786319,114.327597 101.28966,114.522625 100.793,114.522625 C100.29634,114.522625 99.8071181,114.327597 99.4294583,113.954896 C99.0493194,113.578062 98.8642083,113.080576 98.8642083,112.584743 L98.8642083,110.412167 L102.723444,110.412167 L102.723444,112.584743" id="Fill-1200" fill="#353F49"></path>
                <path d="M99.4294583,113.954896 C99.2112917,113.730944 99.0592361,113.47559 98.9708125,113.197097 C99.1641875,113.262382 99.3699583,113.302049 99.5815139,113.302049 C100.06991,113.302049 100.569049,113.116937 100.946708,112.738451 C101.326021,112.359139 101.512785,111.86909 101.512785,111.374083 L101.512785,110.412167 L102.723444,110.412167 L102.723444,112.584743 C102.723444,113.080576 102.536681,113.578062 102.156542,113.954896 C101.786319,114.327597 101.28966,114.522625 100.793,114.522625 C100.29634,114.522625 99.8071181,114.327597 99.4294583,113.954896" id="Fill-1201" fill="#232E38"></path>
            </g>
        </g>
    </g>
</svg>